<svg width="162" height="29" viewBox="0 0 162 29" fill="none" xmlns="http://www.w3.org/2000/svg">
<g clip-path="url(#clip0_1651_101)">
<path d="M25.1592 4.87683C23.2417 4.87683 22.3544 5.92651 22.3544 7.47007V8.63313C22.3544 10.3839 23.3051 11.3699 25.1276 11.3699H31.0756C31.6308 11.3699 31.9004 11.6726 31.9004 12.2621V12.9152C31.9004 13.4729 31.6625 13.8075 31.0598 13.8075H22.7348C22.497 13.8075 22.3703 13.9189 22.3703 14.1574V15.6683C22.3703 15.9069 22.497 16.0182 22.7348 16.0182H31.5198C33.4374 16.0182 34.3246 14.9685 34.3246 13.4251V12.1506C34.3246 10.3998 33.3739 9.4138 31.5514 9.4138H25.6034C25.0482 9.4138 24.7786 9.11112 24.7786 8.5215V7.97983C24.7786 7.42227 25.0165 7.08768 25.6193 7.08768H33.5641C33.8017 7.08768 33.9126 6.97634 33.9126 6.73779V5.22673C33.9126 4.98817 33.8017 4.87683 33.5641 4.87683H25.1592Z" fill="#333333"/>
<path d="M40.4455 4.87683C37.2433 4.87683 36.0074 6.02197 36.0074 9.07921V11.816C36.0074 14.8731 37.2433 16.0182 40.4455 16.0182H47.4226C47.6606 16.0182 47.7873 15.9069 47.7873 15.6683V14.1574C47.7873 13.9189 47.6606 13.8075 47.4226 13.8075H40.4931C38.8439 13.8075 38.384 13.3136 38.384 11.6407V11.3699H47.3434C47.5812 11.3699 47.6922 11.2586 47.6922 11.02V9.7637C47.6922 9.52514 47.5812 9.4138 47.3434 9.4138H38.384V9.25452C38.384 7.58155 38.8439 7.08768 40.4931 7.08768H47.4226C47.6606 7.08768 47.7873 6.97634 47.7873 6.73779V5.22673C47.7873 4.98817 47.6606 4.87683 47.4226 4.87683H40.4455Z" fill="#333333"/>
<path d="M53.9241 4.87683C50.7218 4.87683 49.4861 6.02197 49.4861 9.07804V11.817C49.4861 14.8731 50.7218 16.0182 53.9241 16.0182H61.0756C61.3135 16.0182 61.4244 15.9069 61.4244 15.6683V14.1096C61.4244 13.8711 61.3135 13.7597 61.0756 13.7597H54.0192C52.386 13.7597 51.9101 13.2661 51.9101 11.5782V9.31689C51.9101 7.62906 52.386 7.15136 54.0192 7.15136H61.0756C61.3135 7.15136 61.4244 7.024 61.4244 6.78544V5.22673C61.4244 4.98817 61.3135 4.87683 61.0756 4.87683H53.9241Z" fill="#333333"/>
<path d="M63.4558 4.87683C63.2182 4.87683 63.0915 4.98831 63.0915 5.22702V11.8176C63.0915 14.8731 64.3274 16.0182 67.5299 16.0182H72.0979C75.3164 16.0182 76.5363 14.8731 76.5363 11.8176V5.22702C76.5363 4.98831 76.4254 4.87683 76.1878 4.87683H74.4608C74.2232 4.87683 74.1121 4.98831 74.1121 5.22702V11.5787C74.1121 13.2663 73.6523 13.7597 72.0186 13.7597H67.6252C65.9915 13.7597 65.5157 13.2663 65.5157 11.5787V5.22702C65.5157 4.98831 65.4048 4.87683 65.167 4.87683H63.4558Z" fill="#333333"/>
<path d="M79.091 4.87683C78.7741 4.87683 78.6156 5.03597 78.6156 5.35395V15.668C78.6156 15.9069 78.7423 16.0182 78.9801 16.0182H80.6913C80.9289 16.0182 81.0398 15.9069 81.0398 15.668V12.5002H86.163L88.669 15.8113C88.7641 15.9545 88.8432 16.0182 89.1127 16.0182H91.1567C91.4421 16.0182 91.4579 15.7317 91.3628 15.6202L88.6532 12.2457C90.3168 11.9435 91.014 10.8781 91.014 9.06274V8.15485C91.014 6.00608 90.0315 4.87683 87.6063 4.87683H79.091ZM81.0398 7.24696C81.0398 7.11945 81.1032 7.05577 81.2459 7.05577H87.1147C88.1932 7.05577 88.5898 7.51773 88.5898 8.47341V9.14231C88.5898 10.098 88.1932 10.56 87.1147 10.56H81.0398V7.24696Z" fill="#333333"/>
<path d="M96.9922 4.87683C93.7899 4.87683 92.5541 6.02197 92.5541 9.07921V11.816C92.5541 14.8731 93.7899 16.0182 96.9922 16.0182H103.969C104.207 16.0182 104.334 15.9069 104.334 15.6683V14.1574C104.334 13.9189 104.207 13.8075 103.969 13.8075H97.0396C95.3906 13.8075 94.9307 13.3136 94.9307 11.6407V11.3699H103.89C104.128 11.3699 104.239 11.2586 104.239 11.02V9.7637C104.239 9.52514 104.128 9.4138 103.89 9.4138H94.9307V9.25452C94.9307 7.58155 95.3906 7.08768 97.0396 7.08768H103.969C104.207 7.08768 104.334 6.97634 104.334 6.73779V5.22673C104.334 4.98817 104.207 4.87683 103.969 4.87683H96.9922Z" fill="#333333"/>
<path d="M106.524 4.87683C106.286 4.87683 106.16 4.98831 106.16 5.22702V15.668C106.16 15.9069 106.286 16.0182 106.524 16.0182H108.235C108.473 16.0182 108.584 15.9069 108.584 15.668V11.4336H116.007V15.668C116.007 15.9069 116.118 16.0182 116.355 16.0182H118.067C118.304 16.0182 118.431 15.9069 118.431 15.668V5.22702C118.431 4.98831 118.304 4.87683 118.067 4.87683H116.355C116.118 4.87683 116.007 4.98831 116.007 5.22702V9.366H108.584V5.22702C108.584 4.98831 108.473 4.87683 108.235 4.87683H106.524Z" fill="#333333"/>
<path d="M124.838 4.87683C121.635 4.87683 120.399 6.02197 120.399 9.07819V11.817C120.399 14.8731 121.635 16.0182 124.838 16.0182H129.739C132.957 16.0182 134.177 14.8731 134.177 11.817V9.07819C134.177 6.02197 132.957 4.87683 129.739 4.87683H124.838ZM122.823 9.25335C122.823 7.58126 123.299 7.08768 124.933 7.08768H129.644C131.277 7.08768 131.753 7.58126 131.753 9.25335V11.6418C131.753 13.3138 131.277 13.8075 129.644 13.8075H124.933C123.299 13.8075 122.823 13.3138 122.823 11.6418V9.25335Z" fill="#333333"/>
<path d="M136.621 4.87683C136.304 4.87683 136.145 5.03582 136.145 5.35395V15.668C136.145 15.9069 136.272 16.0182 136.51 16.0182H138.221C138.459 16.0182 138.57 15.9069 138.57 15.668V12.6115H145.136C147.561 12.6115 148.544 11.4824 148.544 9.3335V8.15485C148.544 6.00608 147.561 4.87683 145.136 4.87683H136.621ZM138.57 7.26285C138.57 7.11945 138.633 7.07165 138.776 7.07165H144.644C145.723 7.07165 146.12 7.53361 146.12 8.4893V9.09466C146.12 10.0503 145.723 10.5122 144.644 10.5122H138.57V7.26285Z" fill="#333333"/>
<path d="M152.73 4.87683C150.812 4.87683 149.925 5.92651 149.925 7.47007V8.63313C149.925 10.3839 150.876 11.3699 152.698 11.3699H158.646C159.201 11.3699 159.471 11.6726 159.471 12.2621V12.9152C159.471 13.4729 159.233 13.8075 158.63 13.8075H150.305C150.068 13.8075 149.941 13.9189 149.941 14.1574V15.6683C149.941 15.9069 150.068 16.0182 150.305 16.0182H159.09C161.008 16.0182 161.895 14.9685 161.895 13.4251V12.1506C161.895 10.3998 160.945 9.4138 159.122 9.4138H153.174C152.619 9.4138 152.349 9.11112 152.349 8.5215V7.97983C152.349 7.42227 152.587 7.08768 153.19 7.08768H161.135C161.372 7.08768 161.483 6.97634 161.483 6.73779V5.22673C161.483 4.98817 161.372 4.87683 161.135 4.87683H152.73Z" fill="#333333"/>
<path d="M66.7873 20.1785C65.8818 20.1785 65.5323 20.5023 65.5323 21.3667V22.1407C65.5323 23.0052 65.8818 23.329 66.7873 23.329H68.7602C68.8274 23.329 68.8632 23.2975 68.8632 23.23V22.8027C68.8632 22.7353 68.8274 22.7038 68.7602 22.7038H66.8008C66.3344 22.7038 66.2043 22.5642 66.2043 22.0912V22.0145H68.7377C68.805 22.0145 68.8364 21.983 68.8364 21.9156V21.5603C68.8364 21.4929 68.805 21.4615 68.7377 21.4615H66.2043V21.4163C66.2043 20.9433 66.3344 20.8036 66.8008 20.8036H68.7602C68.8274 20.8036 68.8632 20.7722 68.8632 20.7047V20.2774C68.8632 20.2099 68.8274 20.1785 68.7602 20.1785H66.7873Z" fill="#333333"/>
<path d="M70.119 20.1785C70.0428 20.1785 70.0293 20.2235 70.0608 20.2821L71.5494 22.9868C71.7018 23.2614 71.8319 23.329 72.065 23.329H72.325C72.5134 23.329 72.6478 23.2614 72.7959 22.9868L74.2665 20.2821C74.298 20.2235 74.2845 20.1785 74.2128 20.1785H73.6254C73.5716 20.1785 73.5446 20.192 73.5223 20.237L72.2264 22.6583C72.2129 22.6853 72.1996 22.6898 72.1771 22.6898H72.1547C72.1277 22.6898 72.1144 22.6853 72.1009 22.6583L70.7872 20.237C70.7647 20.1965 70.7423 20.1785 70.6839 20.1785H70.119Z" fill="#333333"/>
<path d="M76.5845 20.1785C75.679 20.1785 75.3296 20.5023 75.3296 21.3667V22.1407C75.3296 23.0052 75.679 23.329 76.5845 23.329H78.5574C78.6246 23.329 78.6605 23.2975 78.6605 23.23V22.8027C78.6605 22.7353 78.6246 22.7038 78.5574 22.7038H76.598C76.1316 22.7038 76.0015 22.5642 76.0015 22.0912V22.0145H78.535C78.6022 22.0145 78.6336 21.983 78.6336 21.9156V21.5603C78.6336 21.4929 78.6022 21.4615 78.535 21.4615H76.0015V21.4163C76.0015 20.9433 76.1316 20.8036 76.598 20.8036H78.5574C78.6246 20.8036 78.6605 20.7722 78.6605 20.7047V20.2774C78.6605 20.2099 78.6246 20.1785 78.5574 20.1785H76.5845Z" fill="#333333"/>
<path d="M80.2078 20.1785C80.1183 20.1785 80.0734 20.2235 80.0734 20.3134V23.2299C80.0734 23.2974 80.1093 23.329 80.1765 23.329H80.6603C80.7275 23.329 80.7589 23.2974 80.7589 23.2299V22.3341H82.2076L82.9163 23.2704C82.9431 23.3109 82.9655 23.329 83.0417 23.329H83.6196C83.7003 23.329 83.7048 23.2479 83.6779 23.2163L82.9118 22.2621C83.3821 22.1767 83.5792 21.8755 83.5792 21.3621V21.1054C83.5792 20.4978 83.3015 20.1785 82.6158 20.1785H80.2078ZM80.7589 20.8487C80.7589 20.8127 80.7769 20.7946 80.8172 20.7946H82.4767C82.7817 20.7946 82.8938 20.9252 82.8938 21.1955V21.3847C82.8938 21.6548 82.7817 21.7856 82.4767 21.7856H80.7589V20.8487Z" fill="#333333"/>
<path d="M84.5887 20.1785C84.535 20.1785 84.517 20.228 84.5483 20.2685L86.1401 22.3659V23.2299C86.1401 23.2974 86.176 23.329 86.2432 23.329H86.727C86.7942 23.329 86.8256 23.2974 86.8256 23.2299V22.3659L88.4353 20.2685C88.4667 20.228 88.4443 20.1785 88.3949 20.1785H87.8076C87.7538 20.1785 87.7269 20.192 87.6999 20.2325L86.4941 21.8573L85.2972 20.2325C85.2702 20.192 85.2433 20.1785 85.1895 20.1785H84.5887Z" fill="#333333"/>
<path d="M92.2246 20.1785C92.135 20.1785 92.0902 20.2235 92.0902 20.3134V23.194C92.0902 23.2839 92.135 23.329 92.2246 23.329H94.8882C95.4841 23.329 95.6812 23.0276 95.6812 22.5506V22.2893C95.6812 22.0235 95.5826 21.8302 95.3721 21.7088C95.5603 21.5829 95.6588 21.3938 95.6588 21.1371V20.9208C95.6588 20.4214 95.4258 20.1785 94.8073 20.1785H92.2246ZM94.6145 21.9785C94.9105 21.9785 95.0047 22.0776 95.0047 22.2622V22.4335C95.0047 22.6226 94.9105 22.7083 94.6729 22.7083H92.834C92.7936 22.7083 92.7756 22.6902 92.7756 22.6497V21.9785H94.6145ZM92.7756 20.8577C92.7756 20.8172 92.7936 20.7991 92.834 20.7991H94.6684C94.9015 20.7991 95.0002 20.8847 95.0002 21.0695V21.2226C95.0002 21.3984 94.9105 21.4884 94.6145 21.4884H92.7756V20.8577Z" fill="#333333"/>
<path d="M96.7803 20.1785C96.7265 20.1785 96.7086 20.228 96.74 20.2685L98.3317 22.3659V23.2299C98.3317 23.2974 98.3675 23.329 98.4347 23.329H98.9187C98.9859 23.329 99.0173 23.2974 99.0173 23.2299V22.3659L100.627 20.2685C100.658 20.228 100.636 20.1785 100.587 20.1785H99.9991C99.9454 20.1785 99.9184 20.192 99.8916 20.2325L98.6857 21.8573L97.4887 20.2325C97.4619 20.192 97.435 20.1785 97.3812 20.1785H96.7803Z" fill="#333333"/>
<path d="M101.793 20.1785C101.726 20.1785 101.69 20.2099 101.69 20.2774V20.7182C101.69 20.7857 101.726 20.8216 101.793 20.8216H103.201V23.2299C103.201 23.2974 103.233 23.329 103.3 23.329H103.788C103.855 23.329 103.887 23.2974 103.887 23.2299V20.8216H105.295C105.362 20.8216 105.398 20.7857 105.398 20.7182V20.2774C105.398 20.2099 105.362 20.1785 105.295 20.1785H101.793Z" fill="#333333"/>
<path d="M107.823 20.1785C106.918 20.1785 106.569 20.5023 106.569 21.3667V22.1407C106.569 23.0052 106.918 23.329 107.823 23.329H109.796C109.864 23.329 109.9 23.2975 109.9 23.23V22.8027C109.9 22.7353 109.864 22.7038 109.796 22.7038H107.837C107.371 22.7038 107.241 22.5642 107.241 22.0912V22.0145H109.774C109.841 22.0145 109.873 21.983 109.873 21.9156V21.5603C109.873 21.4929 109.841 21.4615 109.774 21.4615H107.241V21.4163C107.241 20.9433 107.371 20.8036 107.837 20.8036H109.796C109.864 20.8036 109.9 20.7722 109.9 20.7047V20.2774C109.9 20.2099 109.864 20.1785 109.796 20.1785H107.823Z" fill="#333333"/>
<path d="M113.814 20.1785C113.747 20.1785 113.711 20.2099 113.711 20.2776V23.2299C113.711 23.2974 113.747 23.329 113.814 23.329H114.298C114.365 23.329 114.397 23.2974 114.397 23.2299V22.0326H116.496V23.2299C116.496 23.2974 116.527 23.329 116.594 23.329H117.078C117.145 23.329 117.181 23.2974 117.181 23.2299V20.2776C117.181 20.2099 117.145 20.1785 117.078 20.1785H116.594C116.527 20.1785 116.496 20.2099 116.496 20.2776V21.4479H114.397V20.2776C114.397 20.2099 114.365 20.1785 114.298 20.1785H113.814Z" fill="#333333"/>
<path d="M120.396 20.1785C120.208 20.1785 120.074 20.2505 119.926 20.5206L118.455 23.2254C118.424 23.2839 118.437 23.329 118.513 23.329H119.096C119.15 23.329 119.177 23.3154 119.199 23.2704L119.509 22.6897H121.616L121.934 23.2704C121.957 23.3154 121.979 23.329 122.038 23.329H122.607C122.679 23.329 122.692 23.2839 122.661 23.2254L121.177 20.5206C121.029 20.2505 120.89 20.1785 120.661 20.1785H120.396ZM120.495 20.8493C120.509 20.8267 120.522 20.8176 120.545 20.8176H120.571C120.594 20.8176 120.607 20.8267 120.621 20.8493L121.334 22.1681H119.791L120.495 20.8493Z" fill="#333333"/>
<path d="M124.678 20.1785C124.136 20.1785 123.885 20.4753 123.885 20.9118V21.2407C123.885 21.7357 124.154 22.0145 124.669 22.0145H126.351C126.508 22.0145 126.585 22.1 126.585 22.2668V22.4515C126.585 22.6092 126.517 22.7038 126.347 22.7038H123.993C123.926 22.7038 123.89 22.7353 123.89 22.8027V23.23C123.89 23.2975 123.926 23.329 123.993 23.329H126.477C127.019 23.329 127.27 23.0321 127.27 22.5957V22.2353C127.27 21.7402 127.001 21.4615 126.486 21.4615H124.804C124.647 21.4615 124.571 21.3758 124.571 21.2091V21.0559C124.571 20.8982 124.638 20.8036 124.809 20.8036H127.055C127.122 20.8036 127.154 20.7722 127.154 20.7047V20.2774C127.154 20.2099 127.122 20.1785 127.055 20.1785H124.678Z" fill="#333333"/>
<path d="M132.803 20.1785C132.615 20.1785 132.481 20.2505 132.333 20.5206L130.862 23.2254C130.831 23.2839 130.844 23.329 130.92 23.329H131.503C131.557 23.329 131.584 23.3154 131.606 23.2704L131.916 22.6897H134.023L134.341 23.2704C134.364 23.3154 134.386 23.329 134.444 23.329H135.014C135.086 23.329 135.099 23.2839 135.068 23.2254L133.584 20.5206C133.436 20.2505 133.297 20.1785 133.068 20.1785H132.803ZM132.902 20.8493C132.916 20.8267 132.929 20.8176 132.951 20.8176H132.978C133.001 20.8176 133.014 20.8267 133.028 20.8493L133.74 22.1681H132.198L132.902 20.8493Z" fill="#333333"/>
<path d="M139.484 20.1785C138.942 20.1785 138.691 20.4753 138.691 20.9118V21.2407C138.691 21.7357 138.96 22.0145 139.475 22.0145H141.157C141.314 22.0145 141.39 22.1 141.39 22.2668V22.4515C141.39 22.6092 141.323 22.7038 141.153 22.7038H138.798C138.731 22.7038 138.696 22.7353 138.696 22.8027V23.23C138.696 23.2975 138.731 23.329 138.798 23.329H141.283C141.825 23.329 142.076 23.0321 142.076 22.5957V22.2353C142.076 21.7402 141.807 21.4615 141.292 21.4615H139.61C139.453 21.4615 139.376 21.3758 139.376 21.2091V21.0559C139.376 20.8982 139.444 20.8036 139.614 20.8036H141.861C141.928 20.8036 141.959 20.7722 141.959 20.7047V20.2774C141.959 20.2099 141.928 20.1785 141.861 20.1785H139.484Z" fill="#333333"/>
<path d="M143.395 20.1785C143.327 20.1785 143.291 20.2099 143.291 20.2774V20.7182C143.291 20.7857 143.327 20.8216 143.395 20.8216H144.802V23.2299C144.802 23.2974 144.834 23.329 144.901 23.329H145.389C145.457 23.329 145.488 23.2974 145.488 23.2299V20.8216H146.896C146.963 20.8216 146.999 20.7857 146.999 20.7182V20.2774C146.999 20.2099 146.963 20.1785 146.896 20.1785H143.395Z" fill="#333333"/>
<path d="M149.425 20.1785C148.519 20.1785 148.17 20.5023 148.17 21.3664V22.141C148.17 23.0052 148.519 23.329 149.425 23.329H150.81C151.721 23.329 152.065 23.0052 152.065 22.141V21.3664C152.065 20.5023 151.721 20.1785 150.81 20.1785H149.425ZM148.855 21.416C148.855 20.9432 148.99 20.8036 149.452 20.8036H150.784C151.245 20.8036 151.38 20.9432 151.38 21.416V22.0914C151.38 22.5642 151.245 22.7038 150.784 22.7038H149.452C148.99 22.7038 148.855 22.5642 148.855 22.0914V21.416Z" fill="#333333"/>
<path d="M153.653 20.1785C153.564 20.1785 153.519 20.2235 153.519 20.3134V23.2299C153.519 23.2974 153.555 23.329 153.622 23.329H154.106C154.173 23.329 154.204 23.2974 154.204 23.2299V22.3341H155.653L156.361 23.2704C156.388 23.3109 156.411 23.329 156.487 23.329H157.065C157.146 23.329 157.15 23.2479 157.123 23.2163L156.357 22.2621C156.827 22.1767 157.025 21.8755 157.025 21.3621V21.1054C157.025 20.4978 156.747 20.1785 156.061 20.1785H153.653ZM154.204 20.8487C154.204 20.8127 154.222 20.7946 154.263 20.7946H155.922C156.227 20.7946 156.339 20.9252 156.339 21.1955V21.3847C156.339 21.6548 156.227 21.7856 155.922 21.7856H154.204V20.8487Z" fill="#333333"/>
<path d="M158.034 20.1785C157.98 20.1785 157.962 20.228 157.994 20.2685L159.586 22.3659V23.2299C159.586 23.2974 159.621 23.329 159.689 23.329H160.173C160.24 23.329 160.271 23.2974 160.271 23.2299V22.3659L161.881 20.2685C161.912 20.228 161.89 20.1785 161.84 20.1785H161.253C161.199 20.1785 161.172 20.192 161.145 20.2325L159.94 21.8573L158.743 20.2325C158.716 20.192 158.689 20.1785 158.635 20.1785H158.034Z" fill="#333333"/>
<path fill-rule="evenodd" clip-rule="evenodd" d="M22.6064 22.0066H59.4549C59.594 22.0066 59.7069 21.8932 59.7069 21.7536C59.7069 21.614 59.594 21.5006 59.4549 21.5006H22.6064C22.4674 21.5006 22.3544 21.614 22.3544 21.7536C22.3544 21.8932 22.4674 22.0066 22.6064 22.0066Z" fill="#333333"/>
<path fill-rule="evenodd" clip-rule="evenodd" d="M6.65137 0.664814C7.07539 0.239141 7.65052 0 8.25018 0C8.8497 0 9.42483 0.239141 9.84884 0.664814C11.5294 2.35191 14.1577 4.99048 15.8382 6.67758C16.2622 7.10325 16.5004 7.68063 16.5004 8.28263C16.5004 8.88449 16.2622 9.46187 15.8382 9.88754C15.0958 10.6328 14.3747 11.3568 14.3747 11.3568C14.3747 11.3568 10.7275 7.69535 9.06207 6.0234C8.84679 5.80729 8.55473 5.68575 8.25018 5.68575C7.94563 5.68575 7.65342 5.80729 7.43815 6.0234C6.99352 6.46977 6.44437 7.02106 5.99974 7.46743C5.78447 7.68354 5.66341 7.97689 5.66341 8.28263C5.66341 8.58837 5.78447 8.88158 5.99974 9.09769C6.907 10.0085 8.25018 11.3568 8.25018 11.3568L5.18786 14.4311C5.18786 14.4311 2.47668 11.7093 0.662018 9.88754C-0.220998 9.00108 -0.220998 7.56405 0.662018 6.67758C2.34255 4.99048 4.97084 2.35191 6.65137 0.664814Z" fill="#333333"/>
<path fill-rule="evenodd" clip-rule="evenodd" d="M9.84905 28.1973C9.42503 28.623 8.8499 28.8621 8.25039 28.8621C7.65073 28.8621 7.0756 28.623 6.65158 28.1973C4.97105 26.5102 2.34276 23.8715 0.662226 22.1845C0.23821 21.7588 0 21.1815 0 20.5795C0 19.9775 0.23821 19.4002 0.662226 18.9746C1.40458 18.2293 2.12574 17.5053 2.12574 17.5053C2.12574 17.5053 5.77292 21.1668 7.43836 22.8386C7.65363 23.0548 7.94584 23.1762 8.25039 23.1762C8.55494 23.1762 8.847 23.0548 9.06227 22.8386C9.5069 22.3923 10.056 21.8409 10.5007 21.3947C10.716 21.1784 10.837 20.8852 10.837 20.5795C10.837 20.2737 10.716 19.9805 10.5007 19.7644C9.59342 18.8536 8.25039 17.5053 8.25039 17.5053L11.3126 14.431C11.3126 14.431 14.0237 17.1528 15.8384 18.9746C16.7214 19.8609 16.7214 21.2981 15.8384 22.1845C14.1579 23.8715 11.5296 26.5102 9.84905 28.1973Z" fill="#333333"/>
</g>
<defs>
<clipPath id="clip0_1651_101">
<rect width="162" height="29" fill="white"/>
</clipPath>
</defs>
</svg>
