<svg width="26" height="26" viewBox="0 0 26 26" fill="none" xmlns="http://www.w3.org/2000/svg">
<path d="M8.71698 13.9399H17.283V18.8101H8.71698V13.9399Z" stroke="white" stroke-width="0.47"/>
<path d="M7.10397 6.42004C7.12597 6.41004 7.14397 6.40001 7.15997 6.39001C7.17497 6.38001 7.19097 6.36998 7.20697 6.34998M7.10397 6.42004L7.20697 6.34998M7.10397 6.42004C7.07497 6.43004 7.05496 6.43995 7.03796 6.44995H7.03497C7.03497 6.44995 7.03297 6.44995 7.02997 6.44995H7.02496L7.01897 6.45996H7.00497C6.86997 6.50996 6.72297 6.50996 6.58797 6.45996H6.57597H6.56998L6.56497 6.44995H6.55898C6.55798 6.44995 6.55797 6.44995 6.55797 6.44995H6.55597C6.53797 6.43995 6.51797 6.43004 6.48997 6.42004H7.10397ZM7.20697 6.34998L7.35197 6.54004M6.47197 6.67004C6.48097 6.67004 6.48997 6.68005 6.49997 6.68005C6.50497 6.68005 6.50997 6.68005 6.51497 6.68005L6.37897 6.63C6.40997 6.64 6.43997 6.66004 6.47197 6.67004ZM6.24097 6.54004L6.38597 6.34998C6.38497 6.34998 6.38496 6.34998 6.38496 6.34998L6.24097 6.54004Z" stroke="white" stroke-width="0.47"/>
<path d="M17.283 20.36H8.71698V20.12H17.283V20.36Z" stroke="white" stroke-width="0.47"/>
<path d="M8.31099 8.73999V9.06006H5.28699V8.73999C5.28699 8.25999 5.52199 7.82996 5.88599 7.57996C6.15899 7.72996 6.46798 7.81006 6.79698 7.81006C7.12598 7.81006 7.43599 7.72996 7.70999 7.57996C8.07499 7.82996 8.31099 8.25999 8.31099 8.73999Z" stroke="white" stroke-width="0.47"/>
<path d="M18.874 6.67004C18.883 6.67004 18.892 6.68005 18.901 6.68005C18.906 6.68005 18.912 6.68005 18.917 6.68005C19.1 6.74005 19.297 6.74005 19.479 6.68005M18.874 6.67004L18.255 5.71997C18.255 5.16997 18.678 4.70996 19.199 4.70996C19.719 4.70996 20.142 5.16997 20.142 5.71997C20.142 6.05997 19.988 6.35004 19.754 6.54004C19.733 6.55004 19.712 6.56996 19.691 6.57996C19.666 6.59996 19.641 6.61 19.615 6.63M18.874 6.67004C18.842 6.66004 18.812 6.64 18.781 6.63L18.874 6.67004ZM19.479 6.68005C19.485 6.68005 19.491 6.68005 19.497 6.68005C19.506 6.68005 19.516 6.67004 19.525 6.67004C19.556 6.66004 19.585 6.64 19.615 6.63M19.479 6.68005L19.403 6.45996H19.406M19.479 6.68005L19.406 6.45996M19.615 6.63L19.504 6.42004C19.504 6.42004 19.504 6.42004 19.505 6.42004M19.615 6.63L19.505 6.42004M19.406 6.45996C19.271 6.50996 19.125 6.50996 18.99 6.45996H18.977H18.971L18.967 6.44995H18.961C18.959 6.44995 18.959 6.44995 18.959 6.44995H18.958C18.94 6.43995 18.919 6.43004 18.891 6.42004C18.868 6.41004 18.852 6.40001 18.838 6.39001H18.836C18.821 6.38001 18.805 6.36998 18.787 6.34998C18.609 6.20998 18.49 5.97997 18.49 5.71997C18.49 5.27997 18.823 4.94995 19.199 4.94995C19.574 4.94995 19.907 5.27997 19.907 5.71997C19.907 5.98997 19.787 6.20998 19.609 6.34998C19.593 6.36998 19.578 6.38001 19.563 6.39001H19.562C19.546 6.40001 19.528 6.41004 19.505 6.42004M19.406 6.45996H19.42L19.426 6.44995H19.432C19.437 6.44995 19.439 6.44995 19.439 6.44995H19.441C19.457 6.43995 19.476 6.43004 19.505 6.42004" stroke="white" stroke-width="0.47"/>
<path d="M20.112 7.57996C20.077 7.55996 20.042 7.54002 20.005 7.52002L20.098 7.33997L20.116 7.31006C20.111 7.31006 20.107 7.31995 20.102 7.31995C20.097 7.31995 20.092 7.31996 20.088 7.32996C19.825 7.47996 19.522 7.56995 19.198 7.56995C18.875 7.56995 18.572 7.47996 18.309 7.32996M20.112 7.57996C19.838 7.72996 19.528 7.81006 19.198 7.81006C18.87 7.81006 18.561 7.72996 18.288 7.57996M20.112 7.57996C20.477 7.82996 20.712 8.25999 20.712 8.73999V9.06006M20.112 7.57996C20.143 7.55996 20.174 7.55003 20.205 7.53003L20.712 9.06006M18.309 7.32996L18.3 7.33997L18.395 7.52002C18.358 7.54002 18.322 7.55996 18.288 7.57996M18.309 7.32996L18.299 7.33997M18.309 7.32996C18.305 7.31996 18.301 7.31995 18.297 7.31995C18.292 7.31995 18.288 7.31006 18.283 7.31006M18.288 7.57996C17.924 7.82996 17.689 8.25999 17.689 8.73999V9.06006M18.288 7.57996C18.256 7.56996 18.225 7.55003 18.194 7.53003H18.193L18.181 7.52002C18.176 7.52002 18.169 7.52001 18.161 7.51001L18.283 7.31006M20.712 9.06006H20.947L18.299 7.33997M20.712 9.06006L18.299 7.33997M20.712 9.06006V9.30005H17.689V9.06006M20.712 9.06006H17.689M17.689 9.06006H17.454V8.73999C17.454 8.12999 17.78 7.58006 18.283 7.31006M18.283 7.31006L18.299 7.33997" stroke="white" stroke-width="0.47"/>
<path d="M18.592 19.4399V13.75C18.592 13.13 18.092 12.63 17.475 12.63H14.293C14.442 12.51 14.538 12.32 14.538 12.12V8.87H15.945C16.112 8.87 16.265 8.80995 16.381 8.69995C16.381 8.70995 16.38 8.72999 16.38 8.73999V9.70996C16.38 10.08 16.674 10.37 17.035 10.37H21.367C21.728 10.37 22.021 10.08 22.021 9.70996V8.73999C22.021 7.89999 21.639 7.12 21.016 6.62C21.143 6.35 21.216 6.04997 21.216 5.71997C21.216 4.57997 20.319 3.64001 19.198 3.64001C18.077 3.64001 17.181 4.57997 17.181 5.71997C17.181 6.04997 17.254 6.35 17.382 6.63C16.979 6.95 16.676 7.39001 16.514 7.89001C16.402 7.69001 16.189 7.56006 15.945 7.56006H13.883C13.522 7.56006 13.229 7.84996 13.229 8.20996V12.12C13.229 12.32 13.324 12.51 13.474 12.63H12.479C12.629 12.51 12.724 12.32 12.724 12.12V8.20996C12.724 7.84996 12.431 7.56006 12.07 7.56006H10.008C9.78498 7.56006 9.58798 7.66997 9.46898 7.83997C9.30298 7.35997 9.00598 6.94 8.61398 6.62C8.74198 6.35 8.81398 6.04997 8.81398 5.71997C8.81398 4.57997 7.91798 3.64001 6.79698 3.64001C5.67598 3.64001 4.77899 4.57997 4.77899 5.71997C4.77899 6.04997 4.85198 6.35 4.97998 6.63C4.35998 7.13 3.97899 7.89999 3.97899 8.73999V9.70996C3.97899 10.08 4.27198 10.37 4.63298 10.37H8.96498C9.32598 10.37 9.61998 10.08 9.61998 9.70996V8.73999C9.72798 8.81999 9.86198 8.87 10.008 8.87H11.416V12.12C11.416 12.32 11.511 12.51 11.66 12.63H8.52498C7.90798 12.63 7.40799 13.13 7.40799 13.75V19.4399C7.40799 19.4399 7.40698 19.45 7.40698 19.47C7.40698 19.48 7.40799 19.49 7.40799 19.49V20.55C7.40799 21.17 7.90798 21.67 8.52498 21.67H12.346V21.89H11.07C10.709 21.89 10.416 22.19 10.416 22.55C10.416 22.91 10.709 23.2 11.07 23.2H14.93C15.291 23.2 15.584 22.91 15.584 22.55C15.584 22.19 15.291 21.89 14.93 21.89H13.654V21.67H17.472C18.01 21.67 18.46 21.29 18.567 20.78H18.592V20.55V19.49H18.593C18.593 19.48 18.594 19.47 18.594 19.47C18.594 19.45 18.592 19.4399 18.592 19.4399ZM0.234985 13C0.234985 5.96 5.96198 0.22998 13 0.22998C20.038 0.22998 25.765 5.96 25.765 13C25.765 20.04 20.038 25.76 13 25.76C5.96198 25.76 0.234985 20.04 0.234985 13Z" stroke="white" stroke-width="0.47"/>
</svg>
