<svg width="50" height="50" viewBox="0 0 50 50" fill="none" xmlns="http://www.w3.org/2000/svg">
<path d="M25 50C38.8071 50 50 38.8071 50 25C50 11.1929 38.8071 0 25 0C11.1929 0 0 11.1929 0 25C0 38.8071 11.1929 50 25 50Z" fill="#16B198"/>
<path d="M25 13.597C19.749 13.597 15.479 17.797 15.479 22.96C15.479 24.766 16.003 26.519 16.995 28.031C17.923 29.444 19.216 30.582 20.742 31.333V31.961H20.162C19.984 31.961 19.839 32.103 19.839 32.279C19.839 32.455 19.984 32.597 20.162 32.597H20.742V38.186C20.742 38.362 20.886 38.504 21.065 38.504H22.76V39.681C22.76 39.857 22.905 39.999 23.084 39.999H26.917C27.096 39.999 27.241 39.857 27.241 39.681V38.504H28.935C29.114 38.504 29.259 38.362 29.259 38.186V36.546H29.838C30.017 36.546 30.161 36.403 30.161 36.228C30.161 36.052 30.017 35.91 29.838 35.91H29.259V34.628H29.838C30.017 34.628 30.161 34.486 30.161 34.31C30.161 34.134 30.017 33.992 29.838 33.992H29.259V32.597H29.838C30.017 32.597 30.161 32.455 30.161 32.279C30.161 32.104 30.017 31.961 29.838 31.961H29.259V31.334C30.784 30.582 32.077 29.445 33.006 28.031C33.997 26.52 34.522 24.766 34.522 22.96C34.522 17.797 30.25 13.597 25 13.597ZM26.593 39.363H23.407V38.504H26.593V39.363ZM28.611 33.991H24.131C23.952 33.991 23.808 34.134 23.808 34.309C23.808 34.485 23.952 34.628 24.131 34.628H28.611V35.909H24.131C23.952 35.909 23.808 36.052 23.808 36.228C23.808 36.403 23.952 36.545 24.131 36.545H28.611V37.868H26.919H26.917H26.914H23.086H23.083H23.08H21.388V32.597H28.611V33.991ZM28.797 30.849C28.79 30.852 28.785 30.856 28.779 30.859C28.768 30.865 28.757 30.871 28.747 30.878C28.739 30.884 28.732 30.89 28.724 30.898C28.716 30.904 28.708 30.911 28.701 30.918C28.694 30.926 28.687 30.934 28.681 30.943C28.674 30.95 28.668 30.958 28.662 30.967C28.656 30.975 28.652 30.984 28.647 30.993C28.643 31.003 28.638 31.012 28.634 31.021C28.63 31.031 28.627 31.041 28.625 31.051C28.622 31.061 28.619 31.071 28.618 31.081C28.616 31.092 28.615 31.104 28.614 31.116C28.613 31.123 28.611 31.129 28.611 31.137V31.961H21.388V31.137C21.388 31.129 21.386 31.121 21.386 31.113C21.385 31.102 21.384 31.092 21.382 31.081C21.38 31.07 21.377 31.06 21.374 31.049C21.372 31.04 21.369 31.031 21.366 31.022C21.361 31.012 21.356 31.002 21.351 30.991C21.347 30.984 21.343 30.975 21.338 30.967C21.332 30.958 21.325 30.949 21.318 30.941C21.312 30.934 21.306 30.926 21.299 30.919C21.292 30.911 21.283 30.904 21.275 30.897C21.268 30.89 21.261 30.884 21.252 30.878C21.242 30.871 21.231 30.865 21.22 30.859C21.214 30.856 21.209 30.852 21.203 30.849C18.118 29.411 16.125 26.314 16.125 22.96C16.125 18.149 20.106 14.234 25 14.234C29.893 14.234 33.875 18.149 33.875 22.96C33.875 26.314 31.882 29.411 28.797 30.849Z" fill="white"/>
<path d="M25 12.062C25.179 12.062 25.323 11.92 25.323 11.744V10.318C25.323 10.142 25.179 10 25 10C24.822 10 24.677 10.142 24.677 10.318V11.744C24.676 11.919 24.821 12.062 25 12.062Z" fill="white"/>
<path d="M19.107 13.383C19.167 13.485 19.276 13.542 19.388 13.542C19.443 13.542 19.499 13.528 19.549 13.499C19.704 13.412 19.757 13.217 19.668 13.065L18.943 11.83C18.853 11.678 18.656 11.626 18.501 11.713C18.346 11.801 18.293 11.996 18.382 12.148L19.107 13.383Z" fill="white"/>
<path d="M13.86 16.825L15.116 17.538C15.167 17.567 15.222 17.581 15.278 17.581C15.39 17.581 15.498 17.524 15.558 17.422C15.648 17.27 15.595 17.075 15.44 16.987L14.184 16.274C14.029 16.186 13.832 16.239 13.742 16.391C13.652 16.543 13.705 16.737 13.86 16.825Z" fill="white"/>
<path d="M14.097 22.783C14.097 22.608 13.953 22.465 13.774 22.465H12.323C12.145 22.465 12 22.608 12 22.783C12 22.959 12.145 23.101 12.323 23.101H13.774C13.952 23.102 14.097 22.959 14.097 22.783Z" fill="white"/>
<path d="M15.116 28.025L13.859 28.738C13.705 28.826 13.651 29.02 13.741 29.172C13.8 29.274 13.909 29.332 14.021 29.332C14.076 29.332 14.132 29.318 14.183 29.289L15.439 28.577C15.594 28.489 15.647 28.294 15.558 28.142C15.469 27.989 15.271 27.937 15.116 28.025Z" fill="white"/>
<path d="M36.14 28.738L34.884 28.025C34.729 27.937 34.531 27.9901 34.442 28.1421C34.353 28.2941 34.406 28.489 34.56 28.577L35.816 29.289C35.867 29.318 35.923 29.332 35.978 29.332C36.09 29.332 36.199 29.275 36.259 29.173C36.348 29.021 36.295 28.826 36.14 28.738Z" fill="white"/>
<path d="M37.676 22.465H36.226C36.047 22.465 35.902 22.608 35.902 22.783C35.902 22.959 36.047 23.101 36.226 23.101H37.676C37.855 23.101 37.999 22.959 37.999 22.783C37.999 22.608 37.855 22.465 37.676 22.465Z" fill="white"/>
<path d="M34.723 17.581C34.778 17.581 34.834 17.567 34.885 17.538L36.14 16.825C36.295 16.738 36.348 16.543 36.259 16.391C36.17 16.239 35.972 16.186 35.817 16.274L34.561 16.987C34.406 17.075 34.354 17.27 34.443 17.422C34.502 17.524 34.611 17.581 34.723 17.581Z" fill="white"/>
<path d="M30.451 13.499C30.502 13.528 30.558 13.542 30.612 13.542C30.724 13.542 30.833 13.485 30.893 13.383L31.618 12.148C31.708 11.996 31.654 11.801 31.5 11.713C31.345 11.626 31.147 11.678 31.058 11.83L30.332 13.065C30.243 13.217 30.296 13.411 30.451 13.499Z" fill="white"/>
<path d="M25.07 23.246C24.516 23.246 24.064 23.689 24.064 24.235C24.064 24.669 24.351 25.038 24.747 25.171V31.199C24.747 31.374 24.892 31.517 25.07 31.517C25.249 31.517 25.394 31.374 25.394 31.199V25.171C25.79 25.038 26.077 24.669 26.077 24.235C26.077 23.69 25.625 23.246 25.07 23.246ZM25.07 24.588C24.872 24.588 24.711 24.43 24.711 24.235C24.711 24.041 24.872 23.882 25.07 23.882C25.268 23.882 25.429 24.041 25.429 24.235C25.429 24.43 25.268 24.588 25.07 24.588Z" fill="white"/>
<path d="M31.438 19.944C30.883 19.944 30.432 20.387 30.432 20.933C30.432 21.367 30.718 21.736 31.114 21.869V23.464L29.127 25.417C29.122 25.422 29.119 25.428 29.114 25.434C29.105 25.444 29.095 25.454 29.088 25.465C29.081 25.476 29.075 25.488 29.068 25.5C29.065 25.507 29.061 25.513 29.058 25.52C29.052 25.535 29.048 25.55 29.043 25.566C29.042 25.57 29.04 25.574 29.039 25.579C29.035 25.601 29.032 25.623 29.033 25.644V28.055L27.662 28.654V24.633L28.538 23.772C28.553 23.757 28.566 23.74 28.578 23.723C28.583 23.717 28.586 23.709 28.59 23.703C28.596 23.691 28.603 23.68 28.608 23.668C28.612 23.66 28.614 23.651 28.616 23.643C28.62 23.631 28.624 23.62 28.626 23.608C28.629 23.595 28.629 23.582 28.63 23.569C28.631 23.561 28.632 23.554 28.632 23.547V23.113C29.029 22.981 29.315 22.612 29.315 22.178C29.315 21.632 28.864 21.188 28.309 21.188C27.754 21.188 27.303 21.632 27.303 22.178C27.303 22.612 27.589 22.981 27.986 23.114V23.415L27.109 24.277C27.109 24.277 27.107 24.28 27.105 24.282C27.092 24.295 27.08 24.309 27.069 24.325C27.063 24.333 27.06 24.342 27.055 24.351C27.049 24.361 27.044 24.37 27.039 24.38C27.035 24.391 27.032 24.402 27.029 24.414C27.026 24.422 27.023 24.431 27.021 24.44C27.017 24.46 27.015 24.481 27.015 24.502V29.144C27.015 29.252 27.07 29.352 27.162 29.411C27.215 29.446 27.277 29.462 27.338 29.462C27.383 29.462 27.428 29.453 27.47 29.435L29.488 28.554C29.605 28.502 29.68 28.388 29.68 28.262V25.775L31.666 23.822C31.677 23.812 31.685 23.8 31.694 23.789C31.698 23.784 31.702 23.779 31.706 23.775C31.714 23.761 31.722 23.748 31.728 23.734C31.73 23.729 31.733 23.725 31.735 23.72C31.742 23.704 31.747 23.687 31.751 23.671C31.752 23.667 31.753 23.664 31.754 23.661C31.758 23.639 31.761 23.617 31.761 23.595V21.871C32.157 21.738 32.443 21.369 32.443 20.935C32.444 20.388 31.993 19.944 31.438 19.944ZM27.95 22.177C27.95 21.982 28.111 21.824 28.309 21.824C28.507 21.824 28.668 21.982 28.668 22.177C28.668 22.371 28.507 22.53 28.309 22.53C28.111 22.53 27.95 22.372 27.95 22.177ZM31.438 21.286C31.24 21.286 31.079 21.128 31.079 20.933C31.079 20.739 31.24 20.58 31.438 20.58C31.636 20.58 31.797 20.739 31.797 20.933C31.797 21.128 31.636 21.286 31.438 21.286Z" fill="white"/>
<path d="M23.111 24.416C23.107 24.403 23.104 24.391 23.099 24.379C23.095 24.37 23.09 24.361 23.085 24.353C23.08 24.343 23.075 24.333 23.069 24.324C23.059 24.309 23.047 24.296 23.035 24.283C23.033 24.281 23.031 24.278 23.029 24.276L22.153 23.414V23.113C22.549 22.98 22.836 22.611 22.836 22.177C22.836 21.631 22.385 21.188 21.83 21.188C21.275 21.188 20.824 21.631 20.824 22.177C20.824 22.611 21.11 22.98 21.507 23.113V23.546C21.507 23.55 21.508 23.553 21.508 23.557C21.508 23.574 21.509 23.591 21.513 23.608C21.515 23.619 21.519 23.628 21.522 23.639C21.525 23.648 21.527 23.658 21.531 23.668C21.536 23.679 21.542 23.689 21.548 23.7C21.553 23.708 21.556 23.715 21.561 23.722C21.573 23.74 21.586 23.756 21.601 23.771L22.477 24.632V28.653L21.106 28.054V25.644C21.107 25.622 21.105 25.6 21.1 25.579C21.099 25.574 21.097 25.571 21.096 25.566C21.092 25.55 21.088 25.534 21.082 25.519C21.079 25.513 21.075 25.508 21.072 25.501C21.066 25.489 21.06 25.476 21.052 25.465C21.045 25.455 21.037 25.447 21.03 25.438C21.024 25.431 21.019 25.424 21.013 25.417L19.026 23.464V21.869C19.422 21.736 19.708 21.367 19.708 20.933C19.708 20.388 19.257 19.944 18.702 19.944C18.147 19.944 17.696 20.388 17.696 20.933C17.696 21.368 17.982 21.736 18.379 21.869V23.595C18.379 23.616 18.381 23.638 18.385 23.658C18.387 23.665 18.389 23.671 18.391 23.677C18.395 23.691 18.399 23.705 18.404 23.718C18.407 23.725 18.411 23.732 18.415 23.739C18.421 23.75 18.427 23.762 18.434 23.773C18.44 23.782 18.448 23.79 18.456 23.799C18.462 23.806 18.467 23.814 18.474 23.821L20.46 25.774V28.262C20.46 28.387 20.536 28.501 20.653 28.552L22.671 29.434C22.713 29.452 22.758 29.461 22.802 29.461C22.864 29.461 22.925 29.444 22.979 29.41C23.07 29.351 23.126 29.251 23.126 29.143V24.502C23.126 24.481 23.123 24.459 23.119 24.439C23.116 24.431 23.113 24.423 23.111 24.416ZM21.83 22.53C21.632 22.53 21.471 22.372 21.471 22.177C21.471 21.982 21.632 21.824 21.83 21.824C22.028 21.824 22.189 21.982 22.189 22.177C22.189 22.372 22.028 22.53 21.83 22.53ZM18.702 21.286C18.504 21.286 18.343 21.128 18.343 20.933C18.343 20.739 18.504 20.58 18.702 20.58C18.9 20.58 19.061 20.739 19.061 20.933C19.061 21.128 18.9 21.286 18.702 21.286Z" fill="white"/>
</svg>
