<svg width="26" height="26" viewBox="0 0 26 26" fill="none" xmlns="http://www.w3.org/2000/svg">
<path d="M19.96 10.4399L21.172 9.29004L22.444 9.08997C22.444 9.08997 22.595 9.38002 22.612 9.40002C23.152 10.2 24.252 10.44 25.083 9.95996C25.826 9.53996 26.178 8.60004 25.917 7.79004C25.637 6.91004 24.736 6.39004 23.838 6.54004C23.027 6.67004 22.393 7.35004 22.311 8.17004L20.886 8.39001C20.793 8.41001 20.706 8.45002 20.637 8.52002L18.805 10.26C18.409 10.22 18.011 10.21 17.607 10.24L17.028 9.64001L18.905 7.76001C18.992 7.67001 19.041 7.55005 19.041 7.43005V5.51001C19.37 5.42001 19.671 5.26001 19.913 5.01001C20.624 4.27001 20.604 3.09 19.868 2.38C19.139 1.67 17.945 1.70005 17.241 2.43005C16.53 3.16005 16.549 4.34005 17.286 5.05005C17.52 5.28005 17.805 5.43001 18.112 5.51001V7.23999L16.348 9C16.139 8.87 15.9 8.80004 15.647 8.79004C15.238 8.76004 14.921 8.93005 14.654 9.18005L14.078 9.73999L12.231 7.82996L13.97 6.15002C14.514 5.62002 14.532 4.73005 14.007 4.18005L12.723 2.82996C13.155 2.11996 13.082 1.18995 12.482 0.569946C11.772 -0.170054 10.587 -0.17998 9.85498 0.52002C9.11898 1.23002 9.099 2.41002 9.81 3.15002C10.393 3.75002 11.323 3.87997 12.053 3.46997C12.053 3.46997 13.331 4.81995 13.336 4.81995C13.504 4.99995 13.51 5.29998 13.324 5.47998L11.585 7.16003L4.80902 0.140015C4.72202 0.0500146 4.60201 0 4.47601 0C4.47601 0 0.475027 0 0.465027 0C0.211027 0 0 0.209961 0 0.459961L0.00299072 4.33997C0.00299072 4.45997 0.0499956 4.57003 0.132996 4.66003L1.37 5.93994C1.484 6.05994 1.65203 6.10995 1.81403 6.06995L3.08502 5.76001L2.68799 6.93994C2.63299 7.10994 2.67398 7.29003 2.79498 7.41003L4.677 9.35999C4.765 9.44999 4.85702 9.49001 5.01202 9.51001L5.81403 9.5L5.78302 10.3C5.77802 10.43 5.82502 10.55 5.91302 10.64L6.612 11.37C6.705 11.46 6.83699 11.52 6.96899 11.51L7.72601 11.47L7.745 12.36C7.748 12.48 7.79398 12.5901 7.87598 12.6801L7.91803 12.72L5.92902 14.64C5.74402 14.82 5.45097 14.81 5.27197 14.63L4.086 13.4C4.813 12.69 4.83099 11.52 4.12299 10.78C3.41499 10.05 2.22397 10.04 1.49597 10.74C0.758972 11.45 0.739012 12.63 1.45001 13.37C1.91401 13.85 2.60297 14.03 3.24597 13.87L4.604 15.28C5.127 15.82 6.02701 15.8401 6.57501 15.3101L8.56403 13.39L9.401 14.26L9.30902 14.34C8.80002 14.84 8.76901 15.62 9.18201 16.17L7.23798 18.11H5.505C5.427 17.81 5.28203 17.53 5.05103 17.29C4.34403 16.55 3.15299 16.54 2.42499 17.24C1.68799 17.95 1.66803 19.13 2.37903 19.87C3.08203 20.59 4.27998 20.61 5.00598 19.91C5.26098 19.67 5.42502 19.36 5.50702 19.04H7.43103C7.55403 19.04 7.67197 18.99 7.75897 18.91L9.802 16.86L10.258 17.33C10.208 17.83 10.214 18.3201 10.255 18.8101L8.51599 20.64C8.45099 20.71 8.40898 20.79 8.39398 20.89L8.17499 22.3C7.75899 22.33 7.37297 22.5201 7.06897 22.8101C6.33197 23.5301 6.31201 24.6999 7.02301 25.4399C7.72701 26.1699 8.92202 26.19 9.65002 25.49C10.387 24.77 10.407 23.6 9.69598 22.86C9.52098 22.68 9.31702 22.5399 9.09302 22.4399L9.28998 21.17L10.437 19.97C10.761 21.31 11.437 22.57 12.432 23.6C14.872 26.12 18.979 26.69 22.029 24.96C22.599 24.64 23.126 24.25 23.597 23.79C26.728 20.77 26.815 15.76 23.791 12.63C22.728 11.53 21.4 10.7899 19.96 10.4399ZM23.481 7.70996C23.838 7.34996 24.427 7.33994 24.795 7.68994C25.163 8.04994 25.174 8.64001 24.818 9.01001C24.463 9.37001 23.873 9.38003 23.505 9.03003C23.137 8.67003 23.126 8.07996 23.481 7.70996ZM17.908 3.06995C18.265 2.69995 18.854 2.69005 19.222 3.05005C19.59 3.40005 19.601 3.98999 19.245 4.35999C18.889 4.72999 18.3 4.74 17.932 4.38C17.564 4.03 17.553 3.43995 17.908 3.06995ZM10.478 2.5C10.122 2.13 10.133 1.54994 10.501 1.18994C10.681 1.01994 10.914 0.930054 11.146 0.930054C11.389 0.930054 11.632 1.01996 11.815 1.20996C12.17 1.57996 12.159 2.17003 11.791 2.53003C11.425 2.88003 10.834 2.87 10.478 2.5ZM2.11798 12.72C1.76198 12.35 1.77303 11.76 2.14203 11.41C2.32103 11.23 2.55399 11.15 2.78699 11.15C3.02999 11.15 3.27302 11.2401 3.45502 11.4301C3.81102 11.8001 3.80003 12.39 3.43103 12.74C3.06503 13.1 2.47498 13.09 2.11798 12.72ZM4.35999 19.24C3.99299 19.6 3.403 19.59 3.047 19.22C2.691 18.85 2.70201 18.26 3.07001 17.91C3.25001 17.73 3.48303 17.65 3.71503 17.65C3.95803 17.65 4.20197 17.7401 4.38397 17.9301C4.73897 18.3001 4.72899 18.89 4.35999 19.24ZM9.00403 24.8199C8.63703 25.1699 8.04698 25.16 7.69098 24.8C7.33498 24.43 7.34603 23.84 7.71503 23.48C7.89403 23.31 8.12699 23.22 8.35999 23.22C8.60299 23.22 8.84602 23.32 9.02802 23.5C9.38402 23.87 9.37303 24.4599 9.00403 24.8199ZM8.66998 12.16L8.64301 10.97C8.64101 10.85 8.58697 10.73 8.49597 10.64C8.40397 10.56 8.27701 10.51 8.15601 10.52L7.13397 10.5699L6.71899 10.14L6.76099 9.05005C6.76599 8.93005 6.71898 8.79996 6.63098 8.70996C6.54398 8.61996 6.423 8.56995 6.297 8.56995H6.29498L5.20697 8.57996L3.65802 6.96997L4.23297 5.25C4.28697 5.09 4.24897 4.91004 4.13397 4.79004C4.01797 4.67004 3.84701 4.62002 3.68201 4.65002L1.85199 5.09998L0.932007 4.15002L0.929016 0.930054H4.27899L13.41 10.38L10.069 13.61L8.66998 12.16ZM22.951 23.12C20.188 25.79 15.769 25.71 13.1 22.95C11.622 21.42 10.931 19.33 11.205 17.23C11.223 17.09 11.176 16.95 11.078 16.85L9.94202 15.67C9.76502 15.49 9.77002 15.19 9.95502 15.01L15.3 9.84998C15.387 9.76998 15.501 9.71997 15.623 9.71997C15.625 9.71997 15.628 9.71997 15.631 9.71997C15.755 9.71997 15.871 9.76999 15.956 9.85999L17.092 11.04C17.19 11.14 17.33 11.1901 17.469 11.1801C19.592 10.9801 21.644 11.74 23.123 13.27C25.791 16.04 25.714 20.45 22.951 23.12Z" fill="white"/>
<path d="M17.143 17.11C16.518 17.71 16.166 18.52 16.151 19.39C16.135 20.26 16.459 21.0799 17.063 21.7099C17.7 22.3699 18.55 22.6999 19.402 22.6999C20.216 22.6999 21.03 22.39 21.66 21.79C22.949 20.54 22.986 18.4799 21.74 17.1899C20.495 15.8999 18.434 15.86 17.143 17.11ZM21.015 21.12C20.093 22.01 18.621 21.98 17.731 21.06C17.3 20.62 17.069 20.03 17.08 19.41C17.091 18.79 17.342 18.21 17.789 17.78C18.239 17.34 18.82 17.13 19.401 17.13C20.01 17.13 20.617 17.3599 21.073 17.8299C21.962 18.7599 21.935 20.23 21.015 21.12Z" fill="white"/>
<path d="M11.274 9.47995L4.17603 2.12998C3.99803 1.94998 3.70502 1.93997 3.52002 2.11997C3.33502 2.29997 3.32997 2.58999 3.50897 2.76999L10.606 10.12C10.697 10.22 10.819 10.27 10.94 10.27C11.056 10.27 11.172 10.22 11.263 10.14C11.447 9.95999 11.453 9.65995 11.274 9.47995Z" fill="white"/>
</svg>
