<svg width="26" height="26" viewBox="0 0 26 26" fill="none" xmlns="http://www.w3.org/2000/svg">
<path d="M24.7 14.72C24.432 14.72 24.171 14.8 23.953 14.96C23.734 15.11 23.569 15.3299 23.48 15.5799H19.068V14.27H21.549C24.003 14.27 26 12.57 26 10.48C26.004 9.72997 25.802 8.98996 25.416 8.33996C25.03 7.68996 24.474 7.16005 23.81 6.81005C22.801 6.25005 21.614 6.11004 20.503 6.42004C20.741 5.42004 20.577 4.36999 20.046 3.49999C18.804 1.38999 15.767 0.150003 13.408 0.0100032C10.84 -0.139997 8.193 1.04 6.974 2.88C6.625 3.39 6.393 3.96995 6.295 4.57995C6.196 5.18995 6.23401 5.82004 6.40601 6.42004C5.36701 6.15004 4.27301 6.20995 3.26801 6.57995C2.58101 6.78995 1.951 7.16002 1.425 7.65002C0.899003 8.14002 0.489996 8.74003 0.229996 9.41003C-0.727004 12.04 1.97001 14.3 4.50101 14.27H6.937V15.5799H2.52499C2.42299 15.2999 2.222 15.05 1.957 14.9C1.693 14.74 1.382 14.68 1.08 14.74C0.778002 14.79 0.504 14.94 0.306 15.18C0.108 15.41 0 15.71 0 16.02C0 16.33 0.108 16.62 0.306 16.86C0.504 17.09 0.778002 17.25 1.08 17.3C1.382 17.35 1.693 17.3 1.957 17.14C2.222 16.99 2.42299 16.7399 2.52499 16.4499H6.937V19.92H3.392C3.289 19.63 3.08801 19.39 2.82401 19.24C2.55901 19.08 2.249 19.02 1.946 19.08C1.644 19.13 1.37 19.28 1.172 19.52C0.974997 19.75 0.865997 20.05 0.865997 20.36C0.865997 20.67 0.974997 20.9599 1.172 21.1999C1.37 21.4299 1.644 21.59 1.946 21.64C2.249 21.69 2.55901 21.64 2.82401 21.48C3.08801 21.33 3.289 21.08 3.392 20.79H6.937V21.51C6.937 22.51 8.616 23.02 10.403 23.25V23.83C10.403 23.95 10.357 24.06 10.276 24.14C10.195 24.22 10.085 24.26 9.97 24.26H5.125C5.022 23.97 4.82101 23.73 4.55701 23.58C4.29201 23.42 3.982 23.36 3.679 23.41C3.377 23.47 3.103 23.62 2.905 23.86C2.708 24.09 2.599 24.3899 2.599 24.6999C2.599 25.0099 2.708 25.3 2.905 25.54C3.103 25.77 3.377 25.93 3.679 25.98C3.982 26.03 4.29201 25.9799 4.55701 25.8199C4.82101 25.6699 5.022 25.42 5.125 25.13H9.97C10.315 25.13 10.645 24.99 10.889 24.75C11.132 24.51 11.269 24.18 11.27 23.83V23.35C11.886 23.4 12.486 23.42 13.003 23.42C13.52 23.42 14.12 23.4 14.736 23.35V23.83C14.736 24.18 14.873 24.51 15.117 24.75C15.36 24.99 15.691 25.13 16.035 25.13H20.881C20.983 25.42 21.184 25.6699 21.449 25.8199C21.713 25.9799 22.024 26.03 22.326 25.98C22.628 25.93 22.902 25.77 23.1 25.54C23.298 25.3 23.406 25.0099 23.406 24.6999C23.406 24.3899 23.298 24.09 23.1 23.86C22.902 23.62 22.628 23.47 22.326 23.41C22.024 23.36 21.713 23.42 21.449 23.58C21.184 23.73 20.983 23.97 20.881 24.26H16.035C15.921 24.26 15.81 24.22 15.729 24.14C15.648 24.06 15.602 23.95 15.602 23.83V23.25C17.389 23.02 19.068 22.51 19.068 21.51V20.79H22.614C22.716 21.08 22.917 21.33 23.182 21.48C23.446 21.64 23.757 21.69 24.059 21.64C24.361 21.59 24.635 21.4299 24.833 21.1999C25.031 20.9599 25.139 20.67 25.139 20.36C25.139 20.05 25.031 19.75 24.833 19.52C24.635 19.28 24.361 19.13 24.059 19.08C23.757 19.02 23.446 19.08 23.182 19.24C22.917 19.39 22.716 19.63 22.614 19.92H19.068V16.4499H23.48C23.56 16.6799 23.7 16.88 23.885 17.03C24.069 17.18 24.292 17.27 24.527 17.3C24.763 17.34 25.003 17.3 25.221 17.21C25.439 17.11 25.627 16.96 25.763 16.76C25.9 16.57 25.981 16.34 25.997 16.1C26.013 15.87 25.963 15.63 25.854 15.42C25.744 15.21 25.578 15.03 25.375 14.9C25.171 14.78 24.938 14.72 24.7 14.72ZM1.30499 16.4499C1.21999 16.4499 1.136 16.43 1.065 16.38C0.993002 16.33 0.937999 16.26 0.904999 16.18C0.871999 16.11 0.864005 16.02 0.880005 15.93C0.897005 15.85 0.937993 15.77 0.998993 15.71C1.05899 15.65 1.13699 15.61 1.22099 15.59C1.30499 15.58 1.39199 15.58 1.47099 15.62C1.54999 15.65 1.61799 15.71 1.66499 15.78C1.71299 15.85 1.73801 15.93 1.73801 16.02C1.73801 16.13 1.69299 16.24 1.61099 16.33C1.52999 16.41 1.41999 16.4499 1.30499 16.4499ZM2.172 20.79C2.086 20.79 2.002 20.77 1.931 20.72C1.86 20.67 1.804 20.6 1.771 20.52C1.739 20.45 1.72999 20.36 1.74699 20.27C1.76399 20.19 1.80501 20.11 1.86501 20.05C1.92601 19.99 2.00301 19.95 2.08701 19.93C2.17101 19.92 2.25801 19.92 2.33701 19.96C2.41701 19.99 2.484 20.05 2.532 20.12C2.58 20.19 2.605 20.27 2.605 20.36C2.605 20.47 2.559 20.58 2.478 20.67C2.397 20.75 2.287 20.79 2.172 20.79ZM3.905 25.13C3.819 25.13 3.735 25.1101 3.664 25.0601C3.593 25.0101 3.537 24.94 3.504 24.86C3.472 24.78 3.463 24.7 3.48 24.61C3.496 24.53 3.53801 24.45 3.59801 24.39C3.65901 24.33 3.73601 24.29 3.82001 24.27C3.90401 24.26 3.99101 24.26 4.07001 24.3C4.15001 24.33 4.217 24.39 4.265 24.46C4.312 24.53 4.338 24.6099 4.338 24.6999C4.338 24.8099 4.292 24.92 4.211 25C4.13 25.09 4.02 25.13 3.905 25.13ZM22.101 24.26C22.186 24.26 22.27 24.29 22.341 24.34C22.413 24.38 22.468 24.45 22.501 24.53C22.534 24.61 22.542 24.7 22.526 24.78C22.509 24.87 22.468 24.94 22.407 25C22.347 25.07 22.269 25.11 22.185 25.12C22.101 25.14 22.014 25.13 21.935 25.1C21.856 25.07 21.788 25.0099 21.741 24.9399C21.693 24.8699 21.668 24.7799 21.668 24.6999C21.668 24.5799 21.713 24.47 21.795 24.39C21.876 24.31 21.986 24.26 22.101 24.26ZM23.834 19.92C23.919 19.92 24.003 19.95 24.074 20C24.146 20.05 24.201 20.1099 24.234 20.1899C24.267 20.2699 24.275 20.3599 24.259 20.4399C24.242 20.5299 24.201 20.6 24.14 20.67C24.079 20.73 24.002 20.77 23.918 20.78C23.834 20.8 23.747 20.79 23.668 20.76C23.589 20.73 23.521 20.67 23.474 20.6C23.426 20.53 23.4 20.44 23.4 20.36C23.401 20.24 23.446 20.13 23.527 20.05C23.609 19.97 23.719 19.92 23.834 19.92ZM12.981 10.75C14.027 10.74 16.79 10.6899 18.202 9.94994V13.65C16.505 14.08 14.756 14.28 13.007 14.22C11.254 14.28 9.502 14.09 7.804 13.65V9.94994C9.213 10.6899 11.964 10.74 12.981 10.75ZM7.815 8.88C8.06 8.39 9.906 7.77001 12.995 7.77001C16.079 7.77001 17.949 8.39 18.19 8.88C18.028 9.27 16.285 9.88 13.006 9.88C9.765 9.89 7.959 9.26 7.815 8.88ZM7.804 14.55C9.519 15.04 11.961 15.09 13 15.09C14.044 15.09 16.511 15.03 18.202 14.55V17.99C16.505 18.42 14.756 18.6101 13.007 18.5601C11.254 18.6201 9.502 18.43 7.804 17.99V14.55ZM4.50101 13.4C2.52501 13.31 0.390996 12.0099 1.049 9.68993C1.27 9.14993 1.61001 8.66001 2.04401 8.27001C2.47701 7.87001 2.99299 7.57002 3.55499 7.40002C4.64699 7.01002 5.99899 6.98996 6.94099 7.58996C7.02099 7.63996 7.114 7.66002 7.207 7.65002C7.3 7.64002 7.388 7.60003 7.457 7.54003C7.527 7.48003 7.57499 7.40005 7.59399 7.31005C7.61299 7.21005 7.602 7.12002 7.562 7.03002C7.246 6.47002 7.09101 5.83005 7.11501 5.18005C7.13801 4.53005 7.33901 3.89998 7.69501 3.35998C8.73501 1.78998 11.115 0.759998 13.359 0.879998C15.488 0.999998 18.212 2.08993 19.3 3.93993C19.579 4.39993 19.732 4.92997 19.744 5.47997C19.756 6.01997 19.626 6.56002 19.368 7.03002C19.329 7.12002 19.318 7.22005 19.338 7.31005C19.357 7.40005 19.405 7.48003 19.475 7.54003C19.545 7.61003 19.633 7.64002 19.727 7.65002C19.82 7.66002 19.913 7.63996 19.993 7.58996C20.507 7.27996 21.093 7.11999 21.691 7.11999C22.289 7.11999 22.876 7.26994 23.395 7.56994C23.925 7.84994 24.368 8.26002 24.675 8.78002C24.982 9.29002 25.141 9.87997 25.133 10.48C25.133 12.09 23.525 13.4 21.549 13.4H19.068V9.07995C19.16 6.92995 13.989 6.93002 13 6.90002C12.038 6.94002 6.842 6.92995 6.937 9.07995V13.4H4.50101ZM13.003 22.55C9.55701 22.55 7.887 21.8 7.804 21.51V18.89C9.519 19.38 11.961 19.43 13 19.43C14.044 19.43 16.511 19.37 18.202 18.89V21.5C18.119 21.8 16.449 22.55 13.003 22.55ZM24.7 16.4499C24.615 16.4499 24.531 16.43 24.46 16.38C24.388 16.33 24.333 16.26 24.3 16.18C24.267 16.11 24.259 16.02 24.275 15.93C24.292 15.85 24.333 15.77 24.394 15.71C24.454 15.65 24.532 15.61 24.616 15.59C24.7 15.58 24.787 15.58 24.866 15.62C24.945 15.65 25.013 15.71 25.06 15.78C25.108 15.85 25.133 15.93 25.133 16.02C25.133 16.13 25.088 16.24 25.006 16.33C24.925 16.41 24.815 16.4499 24.7 16.4499ZM9.539 12.29C9.553 12.17 9.61 12.07 9.7 12C9.789 11.92 9.90401 11.89 10.018 11.9C12.002 12.11 14.003 12.11 15.988 11.9C16.044 11.9 16.101 11.9 16.156 11.92C16.211 11.93 16.262 11.96 16.306 12C16.351 12.03 16.388 12.07 16.415 12.12C16.442 12.17 16.46 12.23 16.466 12.29C16.472 12.34 16.467 12.4 16.452 12.46C16.436 12.51 16.409 12.56 16.374 12.61C16.338 12.65 16.294 12.69 16.244 12.71C16.195 12.74 16.14 12.76 16.083 12.77C15.06 12.87 14.032 12.93 13.003 12.92C11.974 12.93 10.945 12.87 9.922 12.77C9.808 12.75 9.704 12.7 9.632 12.61C9.56 12.52 9.527 12.4 9.539 12.29ZM13.003 17.26C11.974 17.27 10.945 17.21 9.922 17.11C9.808 17.09 9.703 17.0299 9.632 16.9499C9.56 16.8599 9.527 16.74 9.539 16.63C9.552 16.51 9.61001 16.41 9.69901 16.33C9.78901 16.26 9.90401 16.23 10.018 16.24C12.002 16.45 14.003 16.45 15.988 16.24C16.102 16.23 16.216 16.26 16.306 16.33C16.396 16.41 16.453 16.51 16.466 16.63C16.479 16.74 16.446 16.8599 16.374 16.9499C16.302 17.0299 16.197 17.09 16.083 17.11C15.06 17.21 14.032 17.27 13.003 17.26ZM16.466 20.67C16.479 20.78 16.446 20.9 16.374 20.99C16.302 21.08 16.197 21.13 16.083 21.15C15.06 21.25 14.032 21.31 13.003 21.3C11.974 21.31 10.946 21.25 9.922 21.15C9.808 21.13 9.704 21.08 9.632 20.99C9.56 20.9 9.527 20.78 9.539 20.67C9.553 20.55 9.611 20.45 9.701 20.38C9.79 20.31 9.90401 20.27 10.018 20.28C12.002 20.49 14.003 20.49 15.988 20.28C16.044 20.28 16.102 20.28 16.157 20.3C16.212 20.31 16.263 20.34 16.307 20.37C16.352 20.41 16.389 20.45 16.416 20.5C16.443 20.55 16.46 20.61 16.466 20.67Z" fill="white"/>
</svg>
