<svg width="26" height="26" viewBox="0 0 26 26" fill="none" xmlns="http://www.w3.org/2000/svg">
<path d="M9.87 0C15.31 0 19.74 4.427 19.74 9.867C19.74 12.079 19 14.123 17.77 15.77L18.91 16.909L19.28 16.543C19.31 16.504 19.37 16.483 19.42 16.483C19.48 16.483 19.5299 16.504 19.5699 16.543L25.37 22.35C26.21 23.184 26.21 24.54 25.37 25.373V25.374C24.97 25.778 24.43 26 23.86 26C23.29 26 22.75 25.777 22.35 25.373L16.54 19.567C16.46 19.487 16.46 19.356 16.54 19.276L16.91 18.909L15.77 17.77C14.12 19.004 12.08 19.735 9.87 19.735C4.43 19.735 0 15.308 0 9.867C0 4.427 4.43 0 9.87 0ZM22.64 25.082C22.97 25.408 23.4 25.587 23.86 25.587C24.32 25.587 24.76 25.408 25.08 25.082C25.76 24.409 25.76 23.315 25.08 22.642L20.96 18.518L18.52 20.958L22.64 25.082ZM18.23 20.667L20.67 18.226L19.42 16.981L16.98 19.421L18.23 20.667ZM17.2 18.617L18.62 17.201L17.51 16.098C17.09 16.616 16.62 17.09 16.1 17.514L17.2 18.617ZM9.87 19.322C15.08 19.322 19.3199 15.081 19.3199 9.867C19.3199 4.654 15.08 0.413025 9.87 0.413025C4.65 0.413025 0.410034 4.654 0.410034 9.867C0.410034 15.081 4.65 19.322 9.87 19.322ZM9.87 1.44897C14.51 1.44897 18.29 5.226 18.29 9.867C18.29 14.509 14.51 18.286 9.87 18.286C5.23 18.286 1.44995 14.509 1.44995 9.867C1.44995 5.226 5.23 1.44897 9.87 1.44897ZM9.87 17.873C14.28 17.873 17.87 14.282 17.87 9.867C17.87 5.453 14.28 1.862 9.87 1.862C5.45 1.862 1.85999 5.453 1.85999 9.867C1.85999 14.282 5.45 17.873 9.87 17.873ZM6.28003 8.47198V6.72803C6.28003 4.74903 7.89 3.14001 9.87 3.14001C11.85 3.14001 13.46 4.74903 13.46 6.72803V7.45203C13.46 7.56603 13.36 7.659 13.25 7.659H11.8C11.69 7.659 11.59 7.56603 11.59 7.45203V6.72803C11.59 5.77603 10.82 5.00201 9.87 5.00201C8.92 5.00201 8.14001 5.77603 8.14001 6.72803V8.45398H13.25C13.9 8.45398 14.42 8.97898 14.42 9.62598V14.456C14.42 15.103 13.9 15.629 13.25 15.629H6.48999C5.83999 15.629 5.31006 15.103 5.31006 14.456V9.62598C5.31006 9.04998 5.73003 8.56998 6.28003 8.47198ZM9.87 4.58899C11.05 4.58899 12.01 5.54803 12.01 6.72803V7.24597H13.04V6.72803C13.04 4.97703 11.62 3.55298 9.87 3.55298C8.12 3.55298 6.68994 4.97703 6.68994 6.72803V8.45398H7.72998V6.72803C7.72998 5.54803 8.69 4.58899 9.87 4.58899ZM5.72998 14.456C5.72998 14.875 6.06999 15.216 6.48999 15.216H13.25C13.67 15.216 14.01 14.875 14.01 14.456V9.62598C14.01 9.20698 13.67 8.86603 13.25 8.86603H6.48999C6.06999 8.86603 5.72998 9.20698 5.72998 9.62598V14.456ZM9.87 11.352C10.38 11.352 10.8 11.769 10.8 12.283C10.8 12.725 10.4899 13.096 10.0699 13.19V14.457C10.0699 14.57 9.98 14.663 9.87 14.663C9.75 14.663 9.66003 14.57 9.66003 14.457V13.19C9.25003 13.096 8.93994 12.725 8.93994 12.283C8.93994 11.769 9.35 11.352 9.87 11.352ZM9.87 12.801C10.15 12.801 10.39 12.569 10.39 12.283C10.39 11.997 10.15 11.765 9.87 11.765C9.58 11.765 9.34998 11.997 9.34998 12.283C9.34998 12.569 9.58 12.801 9.87 12.801Z" fill="white"/>
</svg>
