<svg width="26" height="24" viewBox="0 0 26 24" fill="none" xmlns="http://www.w3.org/2000/svg">
<path d="M4.70898 18.105L9.133 20.723C9.194 20.763 9.276 20.783 9.336 20.783C9.418 20.783 9.479 20.763 9.539 20.723L11.813 19.364C11.874 19.364 11.955 19.344 11.995 19.284C12.178 19.144 12.219 18.904 12.077 18.724L7.20502 12.39L10.372 8.91302L14.492 9.95203C14.532 9.95203 14.553 9.97198 14.593 9.97198C14.776 9.97198 14.938 9.852 14.979 9.672C15.04 9.452 14.898 9.23202 14.695 9.19202L10.432 8.11298L7.26599 4.99597L9.62097 2.67798C9.70197 2.59798 9.742 2.49801 9.742 2.39801V0.958984L17.029 4.99597C17.536 5.27597 17.861 5.81502 17.861 6.39502V9.59198C17.861 9.81198 18.044 9.992 18.267 9.992C18.49 9.992 18.673 9.81198 18.673 9.59198V6.39502C18.673 5.53502 18.206 4.73602 17.435 4.29602L9.98602 0.159973C9.78302 0.0399731 9.56 0 9.336 0C9.113 0 8.89001 0.0599731 8.68701 0.159973L1.23798 4.29602C0.466976 4.73602 0 5.53502 0 6.39502V9.992C0 13.309 1.80598 16.426 4.70898 18.105ZM0.812012 6.39502C0.812012 5.81502 1.13698 5.27597 1.64398 4.99597L8.93103 0.958984V2.23798L6.414 4.716C6.251 4.876 6.251 5.116 6.414 5.276L7.65198 6.495L3.87701 8.43298C3.67401 8.53298 3.59299 8.77298 3.71399 8.97198C3.79499 9.11198 3.93802 9.19202 4.08002 9.19202C4.14102 9.19202 4.20102 9.17198 4.26202 9.15198L8.26099 7.09399L9.70203 8.513L6.414 12.13C6.292 12.27 6.27201 12.49 6.39301 12.629L11.163 18.844L9.35699 19.923L5.13501 17.425C2.45601 15.887 0.812012 13.029 0.812012 9.992V6.39502Z" fill="white"/>
<path d="M23.179 18.844C23.564 18.084 23.747 17.245 23.747 16.386C23.747 14.887 23.158 13.488 22.083 12.429C19.87 10.251 16.258 10.251 14.045 12.429C12.969 13.488 12.381 14.887 12.381 16.386C12.381 17.885 12.969 19.283 14.045 20.343C15.161 21.442 16.603 21.981 18.064 21.981C19.018 21.981 19.972 21.741 20.824 21.282L23.097 23.52C23.402 23.82 23.808 23.999 24.254 23.999C24.701 23.999 25.107 23.84 25.411 23.52L25.513 23.42C25.817 23.12 26 22.721 26 22.281C26 21.841 25.838 21.442 25.513 21.142L23.179 18.844ZM14.613 19.783C13.7 18.884 13.193 17.665 13.193 16.386C13.193 15.107 13.7 13.908 14.613 12.989C15.567 12.049 16.806 11.59 18.064 11.59C19.302 11.59 20.56 12.049 21.514 12.989C22.428 13.888 22.935 15.107 22.935 16.386C22.935 17.665 22.428 18.864 21.514 19.783C19.606 21.641 16.521 21.641 14.613 19.783ZM24.924 22.86L24.823 22.96C24.66 23.12 24.457 23.2 24.234 23.2C24.011 23.2 23.808 23.12 23.645 22.96L21.514 20.822C21.717 20.682 21.9 20.522 22.083 20.343C22.326 20.103 22.549 19.843 22.752 19.563L24.944 21.721C25.107 21.881 25.188 22.081 25.188 22.301C25.188 22.521 25.087 22.701 24.924 22.86Z" fill="white"/>
</svg>
