<svg width="26" height="26" viewBox="0 0 26 26" fill="none" xmlns="http://www.w3.org/2000/svg">
<path d="M16.309 21.86L15.769 22.08C15.464 22.19 15.187 22.5 15.118 22.8L14.454 25.21V25.22C14.44 25.28 14.371 25.34 14.315 25.34H11.671C11.616 25.34 11.546 25.28 11.532 25.22V25.21L10.868 22.8C10.799 22.5 10.522 22.18 10.217 22.08L8.52802 21.38C8.23702 21.24 7.82202 21.2701 7.55902 21.4301L5.38599 22.66C5.38599 22.66 5.37201 22.6601 5.37201 22.6801C5.33001 22.7101 5.23302 22.69 5.19202 22.66L3.323 20.79C3.281 20.75 3.28102 20.67 3.30902 20.61C3.30902 20.61 3.309 20.6 3.323 20.6L4.55499 18.4301C4.72099 18.1501 4.74899 17.75 4.60999 17.46L3.91803 15.77C3.80703 15.46 3.503 15.19 3.198 15.12L0.789001 14.45H0.775024C0.720024 14.44 0.664978 14.3699 0.664978 14.3199V11.67C0.664978 11.62 0.720024 11.55 0.775024 11.53H0.789001L3.198 10.87C3.503 10.8 3.82103 10.52 3.91803 10.22L4.62402 8.53003C4.76202 8.24003 4.73497 7.82006 4.56897 7.56006L3.33698 5.39001C3.33698 5.39001 3.337 5.37 3.323 5.37C3.295 5.33 3.30898 5.22994 3.33698 5.18994L5.20599 3.31995C5.24699 3.27995 5.32999 3.28006 5.38599 3.31006C5.38599 3.31006 5.39899 3.30995 5.39899 3.31995L7.573 4.55005C7.85 4.72005 8.25099 4.74999 8.54199 4.60999L10.231 3.92004C10.536 3.81004 10.813 3.49995 10.882 3.19995L11.546 0.790039V0.780029C11.56 0.720029 11.629 0.660034 11.685 0.660034H14.329C14.384 0.660034 14.454 0.720029 14.468 0.780029V0.790039L15.132 3.19995C15.201 3.49995 15.478 3.82004 15.783 3.92004L17.472 4.62C17.763 4.76 18.178 4.72995 18.441 4.56995L20.614 3.33997C20.614 3.33997 20.628 3.33995 20.628 3.31995C20.67 3.28995 20.767 3.30997 20.808 3.33997L22.677 5.20996C22.719 5.24996 22.719 5.33001 22.691 5.39001C22.691 5.39001 22.691 5.40002 22.677 5.40002L21.445 7.56995C21.279 7.84995 21.251 8.25004 21.39 8.54004L22.082 10.23C22.193 10.54 22.497 10.81 22.802 10.88L25.211 11.55H25.225C25.28 11.56 25.335 11.6301 25.335 11.6801V14.33C25.335 14.38 25.28 14.45 25.225 14.47H25.211L22.802 15.13C22.497 15.2 22.179 15.48 22.082 15.78L21.86 16.3199C21.791 16.4899 21.874 16.68 22.04 16.75C22.207 16.82 22.4 16.7399 22.47 16.5699L22.691 16.02C22.691 16.02 22.691 16 22.705 16C22.733 15.91 22.871 15.78 22.968 15.77H22.982L25.391 15.1C25.737 15.02 26 14.69 26 14.33V11.6801C26 11.3201 25.737 10.99 25.391 10.91L22.982 10.24H22.968C22.871 10.22 22.733 10.11 22.705 10.01C22.705 10.01 22.705 10 22.691 10L21.985 8.29004C21.985 8.29004 21.985 8.28003 21.971 8.28003C21.93 8.20003 21.944 8.00004 21.985 7.92004C21.985 7.92004 21.985 7.91003 21.999 7.91003L23.231 5.72998C23.411 5.42998 23.37 5 23.12 4.75L21.251 2.88C21.002 2.63 20.573 2.58002 20.268 2.77002L18.095 4C18.095 4 18.081 4.00001 18.081 4.01001C17.998 4.07001 17.818 4.08003 17.735 4.03003C17.735 4.03003 17.721 4.03001 17.721 4.01001L16.018 3.31006C16.018 3.31006 16.004 3.31004 16.004 3.29004C15.907 3.27004 15.783 3.13003 15.769 3.03003V3.02002L15.104 0.609985C15.021 0.259985 14.689 0 14.329 0H11.685C11.325 0 10.993 0.259985 10.909 0.609985L10.245 3.02002V3.03003C10.217 3.13003 10.106 3.27004 10.01 3.29004C10.01 3.29004 9.99597 3.29006 9.99597 3.31006L8.29303 4.01001C8.29303 4.01001 8.27899 4.01003 8.27899 4.03003C8.19599 4.07003 8.00201 4.06001 7.91901 4.01001C7.91901 4.01001 7.90503 4.01 7.90503 4L5.73199 2.77002C5.42699 2.59002 4.99802 2.63 4.74902 2.88L2.88 4.75C2.63 5 2.57498 5.42998 2.76898 5.72998L4.00098 7.91003C4.00098 7.91003 4.00101 7.92004 4.01501 7.92004C4.07001 8.00004 4.08399 8.18002 4.02899 8.27002C4.02899 8.27002 4.02901 8.28003 4.01501 8.28003L3.30902 9.97998C3.30902 9.97998 3.30898 10 3.29498 10C3.26698 10.09 3.12898 10.22 3.03198 10.23H3.01801L0.609009 10.9C0.263009 10.98 0 11.31 0 11.67V14.3199C0 14.6799 0.263009 15.01 0.609009 15.09L3.01801 15.76H3.03198C3.12898 15.78 3.26698 15.89 3.29498 15.99C3.29498 15.99 3.29502 16 3.30902 16L4.01501 17.71C4.01501 17.71 4.01499 17.72 4.02899 17.72C4.06999 17.8 4.05601 18 4.01501 18.08C4.01501 18.08 4.01498 18.09 4.00098 18.09L2.76898 20.27C2.58898 20.57 2.63 21 2.88 21.25L4.74902 23.12C4.99802 23.37 5.42699 23.42 5.73199 23.23L7.90503 22C7.90503 22 7.91901 22 7.91901 21.99C8.00201 21.93 8.18201 21.92 8.26501 21.97C8.26501 21.97 8.27899 21.97 8.27899 21.99L9.98199 22.6899C9.98199 22.6899 9.99597 22.69 9.99597 22.71C10.093 22.73 10.217 22.87 10.231 22.97V22.98L10.896 25.39C10.979 25.74 11.311 26 11.671 26H14.315C14.675 26 15.007 25.74 15.091 25.39L15.755 22.98V22.97C15.783 22.87 15.893 22.73 15.99 22.71C15.99 22.71 16.004 22.7099 16.004 22.6899L16.544 22.47C16.71 22.4 16.793 22.21 16.724 22.04C16.655 21.87 16.475 21.79 16.309 21.86Z" fill="white"/>
<path d="M25.176 21.4399L18.797 15.37C19.65 13.1 19.053 10.5499 17.249 8.82994C15.672 7.33994 13.427 6.69999 11.24 7.12999C10.984 7.18999 10.771 7.35997 10.7 7.60997C10.629 7.84997 10.7 8.11001 10.885 8.28001L13.996 11.24C14.067 11.31 14.095 11.4 14.067 11.5C13.626 13.03 12.348 14.25 10.728 14.67C10.629 14.7 10.53 14.67 10.458 14.6L7.34701 11.64C7.16301 11.47 6.89305 11.4 6.63705 11.47C6.38105 11.54 6.19704 11.74 6.14004 11.98C5.68504 14.05 6.35301 16.18 7.93001 17.68C9.73401 19.4 12.405 19.96 14.791 19.15L21.141 25.1899C21.709 25.7299 22.448 26 23.201 26C23.897 26 24.593 25.76 25.119 25.28C25.673 24.78 26 24.1 26 23.37C26.014 22.65 25.715 21.9599 25.176 21.4399ZM24.664 24.8399C23.826 25.5899 22.462 25.57 21.624 24.76L15.118 18.5699C15.061 18.5199 14.962 18.48 14.876 18.48C14.834 18.48 14.791 18.49 14.749 18.5C12.561 19.31 10.061 18.83 8.39901 17.25C6.99201 15.91 6.38105 13.99 6.79305 12.13C6.79305 12.12 6.79304 12.1 6.82204 12.1C6.85004 12.09 6.86404 12.1 6.86404 12.12L9.975 15.0699C10.217 15.2999 10.558 15.38 10.885 15.3C12.731 14.83 14.195 13.44 14.692 11.68C14.777 11.37 14.692 11.0399 14.45 10.8199L11.339 7.85997C11.339 7.85997 11.325 7.84993 11.325 7.81993C11.339 7.78993 11.353 7.79002 11.353 7.79002C13.314 7.40002 15.331 7.96993 16.752 9.31993C18.414 10.8999 18.939 13.28 18.073 15.37C18.03 15.49 18.058 15.6299 18.144 15.7099L24.678 21.92C25.09 22.31 25.318 22.84 25.303 23.41C25.332 23.93 25.09 24.4499 24.664 24.8399Z" fill="white"/>
</svg>
