<svg width="162" height="29" viewBox="0 0 162 29" fill="none" xmlns="http://www.w3.org/2000/svg">
<mask id="mask0_1_162" style="mask-type:luminance" maskUnits="userSpaceOnUse" x="0" y="0" width="162" height="29">
<path d="M162 0H0V29H162V0Z" fill="white"/>
</mask>
<g mask="url(#mask0_1_162)">
<path d="M25.159 4.87683C23.242 4.87683 22.354 5.92653 22.354 7.47013V8.63313C22.354 10.3839 23.305 11.3699 25.128 11.3699H31.076C31.631 11.3699 31.9 11.6726 31.9 12.2621V12.9152C31.9 13.4729 31.662 13.8075 31.06 13.8075H22.735C22.497 13.8075 22.37 13.9189 22.37 14.1574V15.6683C22.37 15.9069 22.497 16.0182 22.735 16.0182H31.52C33.437 16.0182 34.325 14.9685 34.325 13.4251V12.1506C34.325 10.3998 33.374 9.41383 31.551 9.41383H25.603C25.048 9.41383 24.779 9.11113 24.779 8.52153V7.97983C24.779 7.42233 25.017 7.08773 25.619 7.08773H33.564C33.802 7.08773 33.913 6.97633 33.913 6.73783V5.22673C33.913 4.98823 33.802 4.87683 33.564 4.87683H25.159Z" fill="#16B198"/>
<path d="M40.445 4.87683C37.243 4.87683 36.007 6.02203 36.007 9.07923V11.816C36.007 14.8731 37.243 16.0182 40.445 16.0182H47.423C47.661 16.0182 47.787 15.9069 47.787 15.6683V14.1574C47.787 13.9189 47.661 13.8075 47.423 13.8075H40.493C38.844 13.8075 38.384 13.3136 38.384 11.6407V11.3699H47.343C47.581 11.3699 47.692 11.2586 47.692 11.02V9.76373C47.692 9.52513 47.581 9.41383 47.343 9.41383H38.384V9.25453C38.384 7.58163 38.844 7.08773 40.493 7.08773H47.423C47.661 7.08773 47.787 6.97633 47.787 6.73783V5.22673C47.787 4.98823 47.661 4.87683 47.423 4.87683H40.445Z" fill="#16B198"/>
<path d="M53.924 4.87683C50.722 4.87683 49.486 6.02203 49.486 9.07803V11.817C49.486 14.8731 50.722 16.0182 53.924 16.0182H61.076C61.314 16.0182 61.424 15.9069 61.424 15.6683V14.1096C61.424 13.8711 61.314 13.7597 61.076 13.7597H54.019C52.386 13.7597 51.91 13.2661 51.91 11.5782V9.31693C51.91 7.62913 52.386 7.15143 54.019 7.15143H61.076C61.314 7.15143 61.424 7.02403 61.424 6.78543V5.22673C61.424 4.98823 61.314 4.87683 61.076 4.87683H53.924Z" fill="#16B198"/>
<path d="M63.456 4.87683C63.218 4.87683 63.091 4.98833 63.091 5.22703V11.8176C63.091 14.8731 64.327 16.0182 67.53 16.0182H72.098C75.316 16.0182 76.536 14.8731 76.536 11.8176V5.22703C76.536 4.98833 76.425 4.87683 76.188 4.87683H74.461C74.223 4.87683 74.112 4.98833 74.112 5.22703V11.5787C74.112 13.2663 73.652 13.7597 72.019 13.7597H67.625C65.992 13.7597 65.516 13.2663 65.516 11.5787V5.22703C65.516 4.98833 65.405 4.87683 65.167 4.87683H63.456Z" fill="#16B198"/>
<path d="M79.091 4.87683C78.774 4.87683 78.616 5.03603 78.616 5.35393V15.668C78.616 15.9069 78.742 16.0182 78.98 16.0182H80.691C80.929 16.0182 81.04 15.9069 81.04 15.668V12.5002H86.163L88.669 15.8113C88.764 15.9545 88.843 16.0182 89.113 16.0182H91.157C91.442 16.0182 91.458 15.7317 91.363 15.6202L88.653 12.2457C90.317 11.9435 91.014 10.8781 91.014 9.06273V8.15493C91.014 6.00613 90.032 4.87683 87.606 4.87683H79.091ZM81.04 7.24703C81.04 7.11943 81.103 7.05583 81.246 7.05583H87.115C88.193 7.05583 88.59 7.51773 88.59 8.47343V9.14233C88.59 10.098 88.193 10.56 87.115 10.56H81.04V7.24703Z" fill="#16B198"/>
<path d="M96.992 4.87683C93.79 4.87683 92.554 6.02203 92.554 9.07923V11.816C92.554 14.8731 93.79 16.0182 96.992 16.0182H103.969C104.207 16.0182 104.334 15.9069 104.334 15.6683V14.1574C104.334 13.9189 104.207 13.8075 103.969 13.8075H97.04C95.391 13.8075 94.931 13.3136 94.931 11.6407V11.3699H103.89C104.128 11.3699 104.239 11.2586 104.239 11.02V9.76373C104.239 9.52513 104.128 9.41383 103.89 9.41383H94.931V9.25453C94.931 7.58163 95.391 7.08773 97.04 7.08773H103.969C104.207 7.08773 104.334 6.97633 104.334 6.73783V5.22673C104.334 4.98823 104.207 4.87683 103.969 4.87683H96.992Z" fill="#16B198"/>
<path d="M106.524 4.87683C106.286 4.87683 106.16 4.98833 106.16 5.22703V15.668C106.16 15.9069 106.286 16.0182 106.524 16.0182H108.235C108.473 16.0182 108.584 15.9069 108.584 15.668V11.4336H116.007V15.668C116.007 15.9069 116.118 16.0182 116.355 16.0182H118.067C118.304 16.0182 118.431 15.9069 118.431 15.668V5.22703C118.431 4.98833 118.304 4.87683 118.067 4.87683H116.355C116.118 4.87683 116.007 4.98833 116.007 5.22703V9.36603H108.584V5.22703C108.584 4.98833 108.473 4.87683 108.235 4.87683H106.524Z" fill="#16B198"/>
<path d="M124.838 4.87683C121.635 4.87683 120.399 6.02203 120.399 9.07823V11.817C120.399 14.8731 121.635 16.0182 124.838 16.0182H129.739C132.957 16.0182 134.177 14.8731 134.177 11.817V9.07823C134.177 6.02203 132.957 4.87683 129.739 4.87683H124.838ZM122.823 9.25343C122.823 7.58133 123.299 7.08773 124.933 7.08773H129.644C131.277 7.08773 131.753 7.58133 131.753 9.25343V11.6418C131.753 13.3138 131.277 13.8075 129.644 13.8075H124.933C123.299 13.8075 122.823 13.3138 122.823 11.6418V9.25343Z" fill="#16B198"/>
<path d="M136.621 4.87683C136.304 4.87683 136.145 5.03583 136.145 5.35393V15.668C136.145 15.9069 136.272 16.0182 136.51 16.0182H138.221C138.459 16.0182 138.57 15.9069 138.57 15.668V12.6115H145.136C147.561 12.6115 148.544 11.4824 148.544 9.33353V8.15493C148.544 6.00613 147.561 4.87683 145.136 4.87683H136.621ZM138.57 7.26283C138.57 7.11943 138.633 7.07173 138.776 7.07173H144.644C145.723 7.07173 146.12 7.53363 146.12 8.48933V9.09473C146.12 10.0503 145.723 10.5122 144.644 10.5122H138.57V7.26283Z" fill="#16B198"/>
<path d="M152.73 4.87683C150.812 4.87683 149.925 5.92653 149.925 7.47013V8.63313C149.925 10.3839 150.876 11.3699 152.698 11.3699H158.646C159.201 11.3699 159.471 11.6726 159.471 12.2621V12.9152C159.471 13.4729 159.233 13.8075 158.63 13.8075H150.305C150.068 13.8075 149.941 13.9189 149.941 14.1574V15.6683C149.941 15.9069 150.068 16.0182 150.305 16.0182H159.09C161.008 16.0182 161.895 14.9685 161.895 13.4251V12.1506C161.895 10.3998 160.945 9.41383 159.122 9.41383H153.174C152.619 9.41383 152.349 9.11113 152.349 8.52153V7.97983C152.349 7.42233 152.587 7.08773 153.19 7.08773H161.135C161.372 7.08773 161.483 6.97633 161.483 6.73783V5.22673C161.483 4.98823 161.372 4.87683 161.135 4.87683H152.73Z" fill="#16B198"/>
<path d="M66.787 20.1785C65.882 20.1785 65.532 20.5023 65.532 21.3667V22.1407C65.532 23.0052 65.882 23.329 66.787 23.329H68.76C68.827 23.329 68.863 23.2975 68.863 23.23V22.8027C68.863 22.7353 68.827 22.7038 68.76 22.7038H66.801C66.334 22.7038 66.204 22.5642 66.204 22.0912V22.0145H68.738C68.805 22.0145 68.836 21.983 68.836 21.9156V21.5603C68.836 21.4929 68.805 21.4615 68.738 21.4615H66.204V21.4163C66.204 20.9433 66.334 20.8036 66.801 20.8036H68.76C68.827 20.8036 68.863 20.7722 68.863 20.7047V20.2774C68.863 20.2099 68.827 20.1785 68.76 20.1785H66.787Z" fill="#333333"/>
<path d="M70.119 20.1785C70.043 20.1785 70.029 20.2235 70.061 20.2821L71.549 22.9868C71.702 23.2614 71.832 23.329 72.065 23.329H72.325C72.513 23.329 72.648 23.2614 72.796 22.9868L74.267 20.2821C74.298 20.2235 74.285 20.1785 74.213 20.1785H73.625C73.572 20.1785 73.545 20.192 73.522 20.237L72.226 22.6583C72.213 22.6853 72.2 22.6898 72.177 22.6898H72.155C72.128 22.6898 72.114 22.6853 72.101 22.6583L70.787 20.237C70.765 20.1965 70.742 20.1785 70.684 20.1785H70.119Z" fill="#333333"/>
<path d="M76.585 20.1785C75.679 20.1785 75.33 20.5023 75.33 21.3667V22.1407C75.33 23.0052 75.679 23.329 76.585 23.329H78.557C78.625 23.329 78.66 23.2975 78.66 23.23V22.8027C78.66 22.7353 78.625 22.7038 78.557 22.7038H76.598C76.132 22.7038 76.002 22.5642 76.002 22.0912V22.0145H78.535C78.602 22.0145 78.634 21.983 78.634 21.9156V21.5603C78.634 21.4929 78.602 21.4615 78.535 21.4615H76.002V21.4163C76.002 20.9433 76.132 20.8036 76.598 20.8036H78.557C78.625 20.8036 78.66 20.7722 78.66 20.7047V20.2774C78.66 20.2099 78.625 20.1785 78.557 20.1785H76.585Z" fill="#333333"/>
<path d="M80.208 20.1785C80.118 20.1785 80.073 20.2235 80.073 20.3134V23.2299C80.073 23.2974 80.109 23.329 80.176 23.329H80.66C80.728 23.329 80.759 23.2974 80.759 23.2299V22.3341H82.208L82.916 23.2704C82.943 23.3109 82.965 23.329 83.042 23.329H83.62C83.7 23.329 83.705 23.2479 83.678 23.2163L82.912 22.2621C83.382 22.1767 83.579 21.8755 83.579 21.3621V21.1054C83.579 20.4978 83.302 20.1785 82.616 20.1785H80.208ZM80.759 20.8487C80.759 20.8127 80.777 20.7946 80.817 20.7946H82.477C82.782 20.7946 82.894 20.9252 82.894 21.1955V21.3847C82.894 21.6548 82.782 21.7856 82.477 21.7856H80.759V20.8487Z" fill="#333333"/>
<path d="M84.589 20.1785C84.535 20.1785 84.517 20.228 84.548 20.2685L86.14 22.3659V23.2299C86.14 23.2974 86.176 23.329 86.243 23.329H86.727C86.794 23.329 86.826 23.2974 86.826 23.2299V22.3659L88.435 20.2685C88.467 20.228 88.444 20.1785 88.395 20.1785H87.808C87.754 20.1785 87.727 20.192 87.7 20.2325L86.494 21.8573L85.297 20.2325C85.27 20.192 85.243 20.1785 85.189 20.1785H84.589Z" fill="#333333"/>
<path d="M92.225 20.1785C92.135 20.1785 92.09 20.2235 92.09 20.3134V23.194C92.09 23.2839 92.135 23.329 92.225 23.329H94.888C95.484 23.329 95.681 23.0276 95.681 22.5506V22.2893C95.681 22.0235 95.583 21.8302 95.372 21.7088C95.56 21.5829 95.659 21.3938 95.659 21.1371V20.9208C95.659 20.4214 95.426 20.1785 94.807 20.1785H92.225ZM94.615 21.9785C94.911 21.9785 95.005 22.0776 95.005 22.2622V22.4335C95.005 22.6226 94.911 22.7083 94.673 22.7083H92.834C92.794 22.7083 92.776 22.6902 92.776 22.6497V21.9785H94.615ZM92.776 20.8577C92.776 20.8172 92.794 20.7991 92.834 20.7991H94.668C94.902 20.7991 95 20.8847 95 21.0695V21.2226C95 21.3984 94.911 21.4884 94.615 21.4884H92.776V20.8577Z" fill="#333333"/>
<path d="M96.78 20.1785C96.726 20.1785 96.709 20.228 96.74 20.2685L98.332 22.3659V23.2299C98.332 23.2974 98.368 23.329 98.435 23.329H98.919C98.986 23.329 99.017 23.2974 99.017 23.2299V22.3659L100.627 20.2685C100.658 20.228 100.636 20.1785 100.587 20.1785H99.999C99.945 20.1785 99.918 20.192 99.892 20.2325L98.686 21.8573L97.489 20.2325C97.462 20.192 97.435 20.1785 97.381 20.1785H96.78Z" fill="#333333"/>
<path d="M101.793 20.1785C101.726 20.1785 101.69 20.2099 101.69 20.2774V20.7182C101.69 20.7857 101.726 20.8216 101.793 20.8216H103.201V23.2299C103.201 23.2974 103.233 23.329 103.3 23.329H103.788C103.855 23.329 103.887 23.2974 103.887 23.2299V20.8216H105.295C105.362 20.8216 105.398 20.7857 105.398 20.7182V20.2774C105.398 20.2099 105.362 20.1785 105.295 20.1785H101.793Z" fill="#333333"/>
<path d="M107.823 20.1785C106.918 20.1785 106.569 20.5023 106.569 21.3667V22.1407C106.569 23.0052 106.918 23.329 107.823 23.329H109.796C109.864 23.329 109.9 23.2975 109.9 23.23V22.8027C109.9 22.7353 109.864 22.7038 109.796 22.7038H107.837C107.371 22.7038 107.241 22.5642 107.241 22.0912V22.0145H109.774C109.841 22.0145 109.873 21.983 109.873 21.9156V21.5603C109.873 21.4929 109.841 21.4615 109.774 21.4615H107.241V21.4163C107.241 20.9433 107.371 20.8036 107.837 20.8036H109.796C109.864 20.8036 109.9 20.7722 109.9 20.7047V20.2774C109.9 20.2099 109.864 20.1785 109.796 20.1785H107.823Z" fill="#333333"/>
<path d="M113.814 20.1785C113.747 20.1785 113.711 20.2099 113.711 20.2776V23.2299C113.711 23.2974 113.747 23.329 113.814 23.329H114.298C114.365 23.329 114.397 23.2974 114.397 23.2299V22.0326H116.496V23.2299C116.496 23.2974 116.527 23.329 116.594 23.329H117.078C117.145 23.329 117.181 23.2974 117.181 23.2299V20.2776C117.181 20.2099 117.145 20.1785 117.078 20.1785H116.594C116.527 20.1785 116.496 20.2099 116.496 20.2776V21.4479H114.397V20.2776C114.397 20.2099 114.365 20.1785 114.298 20.1785H113.814Z" fill="#333333"/>
<path d="M120.396 20.1785C120.208 20.1785 120.074 20.2505 119.926 20.5206L118.455 23.2254C118.424 23.2839 118.437 23.329 118.513 23.329H119.096C119.15 23.329 119.177 23.3154 119.199 23.2704L119.509 22.6897H121.616L121.934 23.2704C121.957 23.3154 121.979 23.329 122.038 23.329H122.607C122.679 23.329 122.692 23.2839 122.661 23.2254L121.177 20.5206C121.029 20.2505 120.89 20.1785 120.661 20.1785H120.396ZM120.495 20.8493C120.509 20.8267 120.522 20.8176 120.545 20.8176H120.571C120.594 20.8176 120.607 20.8267 120.621 20.8493L121.334 22.1681H119.791L120.495 20.8493Z" fill="#333333"/>
<path d="M124.678 20.1785C124.136 20.1785 123.885 20.4753 123.885 20.9118V21.2407C123.885 21.7357 124.154 22.0145 124.669 22.0145H126.351C126.508 22.0145 126.585 22.1 126.585 22.2668V22.4515C126.585 22.6092 126.517 22.7038 126.347 22.7038H123.993C123.926 22.7038 123.89 22.7353 123.89 22.8027V23.23C123.89 23.2975 123.926 23.329 123.993 23.329H126.477C127.019 23.329 127.27 23.0321 127.27 22.5957V22.2353C127.27 21.7402 127.001 21.4615 126.486 21.4615H124.804C124.647 21.4615 124.571 21.3758 124.571 21.2091V21.0559C124.571 20.8982 124.638 20.8036 124.809 20.8036H127.055C127.122 20.8036 127.154 20.7722 127.154 20.7047V20.2774C127.154 20.2099 127.122 20.1785 127.055 20.1785H124.678Z" fill="#333333"/>
<path d="M132.803 20.1785C132.615 20.1785 132.481 20.2505 132.333 20.5206L130.862 23.2254C130.831 23.2839 130.844 23.329 130.92 23.329H131.503C131.557 23.329 131.584 23.3154 131.606 23.2704L131.916 22.6897H134.023L134.341 23.2704C134.364 23.3154 134.386 23.329 134.444 23.329H135.014C135.086 23.329 135.099 23.2839 135.068 23.2254L133.584 20.5206C133.436 20.2505 133.297 20.1785 133.068 20.1785H132.803ZM132.902 20.8493C132.916 20.8267 132.929 20.8176 132.951 20.8176H132.978C133.001 20.8176 133.014 20.8267 133.028 20.8493L133.74 22.1681H132.198L132.902 20.8493Z" fill="#333333"/>
<path d="M139.484 20.1785C138.942 20.1785 138.691 20.4753 138.691 20.9118V21.2407C138.691 21.7357 138.96 22.0145 139.475 22.0145H141.157C141.314 22.0145 141.39 22.1 141.39 22.2668V22.4515C141.39 22.6092 141.323 22.7038 141.153 22.7038H138.798C138.731 22.7038 138.696 22.7353 138.696 22.8027V23.23C138.696 23.2975 138.731 23.329 138.798 23.329H141.283C141.825 23.329 142.076 23.0321 142.076 22.5957V22.2353C142.076 21.7402 141.807 21.4615 141.292 21.4615H139.61C139.453 21.4615 139.376 21.3758 139.376 21.2091V21.0559C139.376 20.8982 139.444 20.8036 139.614 20.8036H141.861C141.928 20.8036 141.959 20.7722 141.959 20.7047V20.2774C141.959 20.2099 141.928 20.1785 141.861 20.1785H139.484Z" fill="#333333"/>
<path d="M143.395 20.1785C143.327 20.1785 143.291 20.2099 143.291 20.2774V20.7182C143.291 20.7857 143.327 20.8216 143.395 20.8216H144.802V23.2299C144.802 23.2974 144.834 23.329 144.901 23.329H145.389C145.457 23.329 145.488 23.2974 145.488 23.2299V20.8216H146.896C146.963 20.8216 146.999 20.7857 146.999 20.7182V20.2774C146.999 20.2099 146.963 20.1785 146.896 20.1785H143.395Z" fill="#333333"/>
<path d="M149.425 20.1785C148.519 20.1785 148.17 20.5023 148.17 21.3664V22.141C148.17 23.0052 148.519 23.329 149.425 23.329H150.81C151.721 23.329 152.065 23.0052 152.065 22.141V21.3664C152.065 20.5023 151.721 20.1785 150.81 20.1785H149.425ZM148.855 21.416C148.855 20.9432 148.99 20.8036 149.452 20.8036H150.784C151.245 20.8036 151.38 20.9432 151.38 21.416V22.0914C151.38 22.5642 151.245 22.7038 150.784 22.7038H149.452C148.99 22.7038 148.855 22.5642 148.855 22.0914V21.416Z" fill="#333333"/>
<path d="M153.653 20.1785C153.564 20.1785 153.519 20.2235 153.519 20.3134V23.2299C153.519 23.2974 153.555 23.329 153.622 23.329H154.106C154.173 23.329 154.204 23.2974 154.204 23.2299V22.3341H155.653L156.361 23.2704C156.388 23.3109 156.411 23.329 156.487 23.329H157.065C157.146 23.329 157.15 23.2479 157.123 23.2163L156.357 22.2621C156.827 22.1767 157.025 21.8755 157.025 21.3621V21.1054C157.025 20.4978 156.747 20.1785 156.061 20.1785H153.653ZM154.204 20.8487C154.204 20.8127 154.222 20.7946 154.263 20.7946H155.922C156.227 20.7946 156.339 20.9252 156.339 21.1955V21.3847C156.339 21.6548 156.227 21.7856 155.922 21.7856H154.204V20.8487Z" fill="#333333"/>
<path d="M158.034 20.1785C157.98 20.1785 157.962 20.228 157.994 20.2685L159.586 22.3659V23.2299C159.586 23.2974 159.621 23.329 159.689 23.329H160.173C160.24 23.329 160.271 23.2974 160.271 23.2299V22.3659L161.881 20.2685C161.912 20.228 161.89 20.1785 161.84 20.1785H161.253C161.199 20.1785 161.172 20.192 161.145 20.2325L159.94 21.8573L158.743 20.2325C158.716 20.192 158.689 20.1785 158.635 20.1785H158.034Z" fill="#333333"/>
<path fill-rule="evenodd" clip-rule="evenodd" d="M22.606 22.0066H59.455C59.594 22.0066 59.707 21.8932 59.707 21.7536C59.707 21.614 59.594 21.5006 59.455 21.5006H22.606C22.467 21.5006 22.354 21.614 22.354 21.7536C22.354 21.8932 22.467 22.0066 22.606 22.0066Z" fill="#333333"/>
<path fill-rule="evenodd" clip-rule="evenodd" d="M6.651 0.664799C7.075 0.239099 7.651 0 8.25 0C8.85 0 9.425 0.239099 9.849 0.664799C11.529 2.3519 14.158 4.9905 15.838 6.6776C16.262 7.1033 16.5 7.6806 16.5 8.2826C16.5 8.8845 16.262 9.4619 15.838 9.8875C15.096 10.6328 14.375 11.3568 14.375 11.3568C14.375 11.3568 10.728 7.6953 9.062 6.0234C8.847 5.8073 8.555 5.6857 8.25 5.6857C7.946 5.6857 7.65301 5.8073 7.43801 6.0234C6.99401 6.4698 6.444 7.0211 6 7.4674C5.784 7.6835 5.663 7.9769 5.663 8.2826C5.663 8.5884 5.784 8.8816 6 9.0977C6.907 10.0085 8.25 11.3568 8.25 11.3568L5.18801 14.4311C5.18801 14.4311 2.47701 11.7093 0.662006 9.8875C-0.220994 9.0011 -0.220994 7.564 0.662006 6.6776C2.34301 4.9905 4.971 2.3519 6.651 0.664799Z" fill="#16B198"/>
<path fill-rule="evenodd" clip-rule="evenodd" d="M9.849 28.1973C9.425 28.623 8.85 28.8621 8.25 28.8621C7.651 28.8621 7.07599 28.623 6.65199 28.1973C4.97099 26.5102 2.343 23.8715 0.662003 22.1845C0.238003 21.7588 0 21.1815 0 20.5795C0 19.9775 0.238003 19.4002 0.662003 18.9746C1.405 18.2293 2.12601 17.5053 2.12601 17.5053C2.12601 17.5053 5.773 21.1668 7.438 22.8386C7.654 23.0548 7.946 23.1762 8.25 23.1762C8.555 23.1762 8.847 23.0548 9.062 22.8386C9.507 22.3923 10.056 21.8409 10.501 21.3947C10.716 21.1784 10.837 20.8852 10.837 20.5795C10.837 20.2737 10.716 19.9805 10.501 19.7644C9.59301 18.8536 8.25 17.5053 8.25 17.5053L11.313 14.431C11.313 14.431 14.024 17.1528 15.838 18.9746C16.721 19.8609 16.721 21.2981 15.838 22.1845C14.158 23.8715 11.53 26.5102 9.849 28.1973Z" fill="#16B198"/>
</g>
</svg>
