<svg width="464" height="331" viewBox="0 0 464 331" fill="none" xmlns="http://www.w3.org/2000/svg">
<g clip-path="url(#clip0_1651_6)">
<path d="M423.683 297.764C427.753 304.961 424.302 329.268 424.302 329.268C424.302 329.268 401.704 319.698 397.635 312.504C395.686 309.048 395.187 304.96 396.25 301.137C397.312 297.314 399.847 294.069 403.3 292.115C406.752 290.162 410.838 289.659 414.66 290.718C418.482 291.778 421.728 294.312 423.683 297.764Z" fill="#F1F1F1"/>
<path d="M424.63 329.237L424.149 329.338C419.526 307.359 403.379 292.455 403.216 292.307L403.546 291.944C403.71 292.093 419.972 307.099 424.63 329.237Z" fill="white"/>
<path d="M460.659 305.959C455.137 315.981 424.003 329.558 424.003 329.558C424.003 329.558 418.87 295.969 424.389 285.95C427.041 281.138 431.495 277.577 436.772 276.05C442.048 274.524 447.714 275.157 452.524 277.81C457.333 280.463 460.892 284.92 462.418 290.199C463.944 295.477 463.311 301.146 460.659 305.959Z" fill="#F1F1F1"/>
<path d="M424.278 329.922L423.81 329.429C446.339 308.023 452.172 278.167 452.228 277.868L452.895 277.993C452.839 278.294 446.971 308.36 424.278 329.922Z" fill="white"/>
<path d="M109.087 230.067C105.524 230.055 101.977 229.596 98.5283 228.701L97.8485 228.512L97.218 228.196C74.421 216.761 55.1885 201.656 40.0545 183.301C27.5267 168.018 17.7595 150.665 11.192 132.024C3.33833 109.706 -0.440056 86.1564 0.0372162 62.5002C0.0468466 62.0036 0.054997 61.6202 0.054997 61.3561C0.054997 49.8566 6.43487 39.7667 16.3084 35.6505C23.8652 32.5003 92.4769 4.30458 97.4342 2.26736C106.77 -2.41296 116.73 1.4935 118.324 2.17663C121.899 3.63907 185.326 29.5947 199.033 36.1247C213.159 42.8547 216.928 54.945 216.928 61.0278C216.928 88.5667 212.161 114.304 202.759 137.525C195.166 156.32 184.405 173.672 170.944 188.825C144.972 218.067 118.993 228.434 118.742 228.525C115.637 229.594 112.371 230.116 109.087 230.067ZM102.978 214.926C105.23 215.432 110.416 216.189 113.796 214.956C118.089 213.389 139.833 202.108 160.152 179.231C188.226 147.622 202.471 107.887 202.492 61.1294C202.442 60.1821 201.769 53.4258 192.826 49.1654C179.386 42.7617 113.458 15.7906 112.794 15.5188L112.612 15.4415C111.23 14.8622 106.833 13.6421 103.802 15.2312L103.196 15.5143C102.461 15.8163 29.6286 45.745 21.861 48.9831C16.4273 51.2482 14.4913 56.8598 14.4913 61.3561C14.4913 61.6847 14.4828 62.1626 14.4708 62.7804C13.85 94.7736 21.2497 173.499 102.978 214.926Z" fill="#3F3D56"/>
<path d="M100.453 8.83385C100.453 8.83385 26.9592 39.0341 19.0848 42.3167C11.2104 45.5994 7.27326 53.4777 7.27326 61.356C7.27326 69.2344 1.36751 172.036 100.453 221.74C100.453 221.74 109.446 224.23 116.269 221.74C123.092 219.251 209.71 177.233 209.71 61.0277C209.71 61.0277 209.71 49.2103 195.93 42.645C182.15 36.0797 115.525 8.83385 115.525 8.83385C115.525 8.83385 107.343 5.22295 100.453 8.83385Z" fill="#16B198"/>
<path opacity="0.1" d="M108.328 32.4689V193.576C108.328 193.576 34.1774 157.866 34.8336 63.9822L108.328 32.4689Z" fill="black"/>
<path d="M109.295 148.259L85.674 117.873L99.4104 107.184L110.595 121.571L148.377 81.6663L161.012 93.6429L109.295 148.259Z" fill="white"/>
<path d="M463.434 331H247.599C247.448 331 247.304 330.94 247.198 330.834C247.092 330.728 247.032 330.584 247.032 330.433C247.032 330.283 247.092 330.139 247.198 330.032C247.304 329.926 247.448 329.866 247.599 329.866H463.434C463.584 329.866 463.728 329.926 463.834 330.032C463.94 330.139 464 330.283 464 330.433C464 330.584 463.94 330.728 463.834 330.834C463.728 330.94 463.584 331 463.434 331Z" fill="#CACACA"/>
<path d="M309.99 322.066L318.751 322.065L322.919 288.255L309.988 288.256L309.99 322.066Z" fill="#FFB8B8"/>
<path d="M307.755 319.204L325.009 319.203H325.01C327.926 319.203 330.722 320.362 332.785 322.425C334.847 324.489 336.005 327.287 336.005 330.204V330.562L307.755 330.563L307.755 319.204Z" fill="#2F2E41"/>
<path d="M339.448 322.066L348.209 322.065L352.377 288.255L339.446 288.256L339.448 322.066Z" fill="#FFB8B8"/>
<path d="M337.213 319.204L354.467 319.203H354.467C357.384 319.203 360.18 320.362 362.242 322.425C364.304 324.489 365.463 327.287 365.463 330.204V330.562L337.213 330.563L337.213 319.204Z" fill="#2F2E41"/>
<path d="M323.76 203.333L325.862 310.596L308.861 309.541L297.066 241.22L293.341 194.637L323.76 203.333Z" fill="#2F2E41"/>
<path d="M352.937 185.321L355.32 312.296L335.492 311.729L331.21 236.251L323.76 208.923L293.342 194.637L298.308 160.477L343.005 159.856L352.937 185.321Z" fill="#2F2E41"/>
<path d="M318.753 71.6593C327.15 71.6593 333.957 64.8489 333.957 56.4479C333.957 48.0468 327.15 41.2365 318.753 41.2365C310.357 41.2365 303.55 48.0468 303.55 56.4479C303.55 64.8489 310.357 71.6593 318.753 71.6593Z" fill="#FFB8B8"/>
<path d="M331.364 78.0673L333.693 81.5972L339.901 98.9877L334.934 166.687L305.757 167.309L302.033 89.671L309.835 79.9133L331.364 78.0673Z" fill="#CCCCCC"/>
<path d="M290.238 91.5345L285.271 90.9135C285.271 90.9135 284.03 91.5345 283.409 95.8822C282.788 100.23 275.339 138.738 275.339 138.738L285.271 185.942L296.445 171.036L289.617 144.949L296.445 118.863L290.238 91.5345Z" fill="#2F2E41"/>
<path d="M353.558 90.9139H357.283L366.595 141.223L357.904 180.352L349.212 166.067L351.695 150.539L350.454 136.875L346.109 128.8L353.558 90.9139Z" fill="#2F2E41"/>
<path d="M327.738 56.4479L324.973 55.7565C324.973 55.7565 322.9 44.0022 318.062 45.3851C313.225 46.7679 300.785 48.1508 300.785 42.6193C300.785 37.0879 312.534 32.2479 319.445 32.9393C326.355 33.6308 335.181 35.9246 337.413 46.0765C340.989 62.3504 330.033 66.461 330.033 66.461L330.216 65.8685C330.722 64.2232 330.758 62.4692 330.32 60.8044C329.882 59.1397 328.988 57.6307 327.738 56.4479Z" fill="#2F2E41"/>
<path d="M285.892 90.9135L305.757 82.8392L310.413 79.4231L324.381 141.223L330.899 77.5598L356.662 90.9135L347.971 133.148L346.729 149.297L350.454 162.34C350.454 162.34 363.491 171.657 359.145 181.594C354.8 191.532 349.833 192.153 349.833 192.153C349.833 192.153 328.727 172.278 327.485 167.309C326.243 162.34 324.381 153.645 324.381 153.645C324.381 153.645 313.828 193.395 301.412 192.774C288.996 192.153 288.996 179.11 288.996 179.11L292.1 165.446L297.066 151.16L294.583 127.558L285.892 90.9135Z" fill="#2F2E41"/>
</g>
<defs>
<clipPath id="clip0_1651_6">
<rect width="464" height="331" fill="white"/>
</clipPath>
</defs>
</svg>
